<svg width="345" height="437" viewBox="0 0 345 437" fill="none" xmlns="http://www.w3.org/2000/svg">
<g id="Design">
<g id="Group 1">
<g id="Subtract">
<mask id="path-1-inside-1_18:1660" fill="white">
<path fill-rule="evenodd" clip-rule="evenodd" d="M58.9215 177.981C55.4205 163.634 43.7981 153.097 30 153.097C16.2019 153.097 4.57945 163.634 1.07847 177.981C0.375531 175.101 0 172.066 0 168.933C0 150.192 13.4315 135 30 135C46.5685 135 60 150.192 60 168.933C60 172.066 59.6245 175.101 58.9215 177.981Z"/>
</mask>
<path fill-rule="evenodd" clip-rule="evenodd" d="M58.9215 177.981C55.4205 163.634 43.7981 153.097 30 153.097C16.2019 153.097 4.57945 163.634 1.07847 177.981C0.375531 175.101 0 172.066 0 168.933C0 150.192 13.4315 135 30 135C46.5685 135 60 150.192 60 168.933C60 172.066 59.6245 175.101 58.9215 177.981Z" fill="#F2EBE1"/>
<path d="M58.9215 177.981L61.836 178.692L56.007 178.692L58.9215 177.981ZM1.07847 177.981L3.99295 178.692H-1.83602L1.07847 177.981ZM56.007 178.692C52.7687 165.421 42.1581 156.097 30 156.097V150.097C45.4382 150.097 58.0724 161.846 61.836 177.27L56.007 178.692ZM30 156.097C17.8419 156.097 7.23126 165.421 3.99295 178.692L-1.83602 177.27C1.92764 161.846 14.5618 150.097 30 150.097V156.097ZM3 168.933C3 171.826 3.34674 174.622 3.99295 177.27L-1.83602 178.692C-2.59567 175.579 -3 172.306 -3 168.933H3ZM30 138C15.4249 138 3 151.491 3 168.933H-3C-3 148.893 11.438 132 30 132V138ZM57 168.933C57 151.491 44.5751 138 30 138V132C48.562 132 63 148.893 63 168.933H57ZM56.007 177.27C56.6533 174.622 57 171.826 57 168.933H63C63 172.306 62.5957 175.579 61.836 178.692L56.007 177.27Z" fill="black" mask="url(#path-1-inside-1_18:1660)"/>
</g>
<g id="Subtract_2">
<mask id="path-3-inside-2_18:1660" fill="white">
<path fill-rule="evenodd" clip-rule="evenodd" d="M59.179 191.554C56.0258 176.633 44.1583 165.539 30 165.539C15.8417 165.539 3.97424 176.633 0.821041 191.554C0.284244 189.014 0 186.363 0 183.637C0 164.896 13.4315 149.704 30 149.704C46.5685 149.704 60 164.896 60 183.637C60 186.363 59.7158 189.014 59.179 191.554Z"/>
</mask>
<path fill-rule="evenodd" clip-rule="evenodd" d="M59.179 191.554C56.0258 176.633 44.1583 165.539 30 165.539C15.8417 165.539 3.97424 176.633 0.821041 191.554C0.284244 189.014 0 186.363 0 183.637C0 164.896 13.4315 149.704 30 149.704C46.5685 149.704 60 164.896 60 183.637C60 186.363 59.7158 189.014 59.179 191.554Z" fill="#F2EBE1"/>
<path d="M59.179 191.554L62.1141 192.175H56.2438L59.179 191.554ZM0.821041 191.554L3.75622 192.175H-2.11414L0.821041 191.554ZM56.2438 192.175C53.3246 178.36 42.4728 168.539 30 168.539V162.539C45.8437 162.539 58.7269 174.905 62.1141 190.934L56.2438 192.175ZM30 168.539C17.5272 168.539 6.67541 178.36 3.75622 192.175L-2.11414 190.934C1.27306 174.905 14.1563 162.539 30 162.539V168.539ZM3 183.637C3 186.154 3.26246 188.597 3.75622 190.934L-2.11414 192.175C-2.69397 189.431 -3 186.572 -3 183.637H3ZM30 152.704C15.4249 152.704 3 166.195 3 183.637H-3C-3 163.597 11.438 146.704 30 146.704V152.704ZM57 183.637C57 166.195 44.5751 152.704 30 152.704V146.704C48.562 146.704 63 163.597 63 183.637H57ZM56.2438 190.934C56.7375 188.597 57 186.154 57 183.637H63C63 186.572 62.694 189.431 62.1141 192.175L56.2438 190.934Z" fill="black" mask="url(#path-3-inside-2_18:1660)"/>
</g>
<g id="Subtract_3">
<mask id="path-5-inside-3_18:1660" fill="white">
<path fill-rule="evenodd" clip-rule="evenodd" d="M59.0549 204.562C55.7245 189.926 43.9788 179.112 30 179.112C16.0212 179.112 4.27545 189.926 0.945131 204.562C0.328148 201.85 0 199.008 0 196.079C0 177.338 13.4315 162.146 30 162.146C46.5685 162.146 60 177.338 60 196.079C60 199.008 59.6719 201.85 59.0549 204.562Z"/>
</mask>
<path fill-rule="evenodd" clip-rule="evenodd" d="M59.0549 204.562C55.7245 189.926 43.9788 179.112 30 179.112C16.0212 179.112 4.27545 189.926 0.945131 204.562C0.328148 201.85 0 199.008 0 196.079C0 177.338 13.4315 162.146 30 162.146C46.5685 162.146 60 177.338 60 196.079C60 199.008 59.6719 201.85 59.0549 204.562Z" fill="#F2EBE1"/>
<path d="M59.0549 204.562L61.9801 205.227L56.1296 205.227L59.0549 204.562ZM0.945131 204.562L3.87035 205.227H-1.98009L0.945131 204.562ZM56.1296 205.227C53.0478 191.684 42.316 182.112 30 182.112V176.112C45.6416 176.112 58.4013 188.169 61.9801 203.896L56.1296 205.227ZM30 182.112C17.684 182.112 6.95218 191.684 3.87035 205.227L-1.98009 203.896C1.59872 188.169 14.3584 176.112 30 176.112V182.112ZM3 196.079C3 198.784 3.30299 201.403 3.87035 203.896L-1.98009 205.227C-2.6467 202.298 -3 199.232 -3 196.079H3ZM30 165.146C15.4249 165.146 3 178.637 3 196.079H-3C-3 176.039 11.438 159.146 30 159.146V165.146ZM57 196.079C57 178.637 44.5751 165.146 30 165.146V159.146C48.562 159.146 63 176.039 63 196.079H57ZM56.1296 203.896C56.697 201.403 57 198.784 57 196.079H63C63 199.232 62.6467 202.298 61.9801 205.227L56.1296 203.896Z" fill="black" mask="url(#path-5-inside-3_18:1660)"/>
</g>
<g id="Subtract_4">
<mask id="path-7-inside-4_18:1660" fill="white">
<path fill-rule="evenodd" clip-rule="evenodd" d="M59.0549 218.135C55.7245 203.5 43.9788 192.685 30 192.685C16.0212 192.685 4.27545 203.5 0.945131 218.135C0.328147 215.424 0 212.581 0 209.652C0 190.911 13.4315 175.719 30 175.719C46.5685 175.719 60 190.911 60 209.652C60 212.581 59.6719 215.424 59.0549 218.135Z"/>
</mask>
<path fill-rule="evenodd" clip-rule="evenodd" d="M59.0549 218.135C55.7245 203.5 43.9788 192.685 30 192.685C16.0212 192.685 4.27545 203.5 0.945131 218.135C0.328147 215.424 0 212.581 0 209.652C0 190.911 13.4315 175.719 30 175.719C46.5685 175.719 60 190.911 60 209.652C60 212.581 59.6719 215.424 59.0549 218.135Z" fill="#F2EBE1"/>
<path d="M59.0549 218.135L61.9801 218.801L56.1296 218.801L59.0549 218.135ZM0.945131 218.135L3.87035 218.801L-1.98009 218.801L0.945131 218.135ZM56.1296 218.801C53.0478 205.257 42.316 195.685 30 195.685V189.685C45.6416 189.685 58.4013 201.742 61.9801 217.469L56.1296 218.801ZM30 195.685C17.684 195.685 6.95218 205.257 3.87035 218.801L-1.98009 217.469C1.59872 201.742 14.3584 189.685 30 189.685V195.685ZM3 209.652C3 212.357 3.30299 214.976 3.87035 217.469L-1.98009 218.801C-2.6467 215.871 -3 212.805 -3 209.652H3ZM30 178.719C15.4249 178.719 3 192.21 3 209.652H-3C-3 189.612 11.438 172.719 30 172.719V178.719ZM57 209.652C57 192.21 44.5751 178.719 30 178.719V172.719C48.562 172.719 63 189.612 63 209.652H57ZM56.1296 217.469C56.697 214.976 57 212.357 57 209.652H63C63 212.805 62.6467 215.871 61.9801 218.801L56.1296 217.469Z" fill="black" mask="url(#path-7-inside-4_18:1660)"/>
</g>
<g id="Subtract_5">
<mask id="path-9-inside-5_18:1660" fill="white">
<path fill-rule="evenodd" clip-rule="evenodd" d="M58.9215 232.273C55.4206 217.926 43.7981 207.39 30 207.39C16.2019 207.39 4.57945 217.926 1.07847 232.273C0.375531 229.393 0 226.358 0 223.225C0 204.484 13.4315 189.292 30 189.292C46.5685 189.292 60 204.484 60 223.225C60 226.358 59.6245 229.393 58.9215 232.273Z"/>
</mask>
<path fill-rule="evenodd" clip-rule="evenodd" d="M58.9215 232.273C55.4206 217.926 43.7981 207.39 30 207.39C16.2019 207.39 4.57945 217.926 1.07847 232.273C0.375531 229.393 0 226.358 0 223.225C0 204.484 13.4315 189.292 30 189.292C46.5685 189.292 60 204.484 60 223.225C60 226.358 59.6245 229.393 58.9215 232.273Z" fill="#F2EBE1"/>
<path d="M58.9215 232.273L61.836 232.985L56.007 232.985L58.9215 232.273ZM1.07847 232.273L3.99295 232.985L-1.83602 232.985L1.07847 232.273ZM56.007 232.985C52.7687 219.714 42.1581 210.39 30 210.39V204.39C45.4382 204.39 58.0724 216.138 61.836 231.562L56.007 232.985ZM30 210.39C17.8419 210.39 7.23126 219.714 3.99295 232.985L-1.83602 231.562C1.92764 216.138 14.5618 204.39 30 204.39V210.39ZM3 223.225C3 226.118 3.34674 228.914 3.99295 231.562L-1.83602 232.985C-2.59567 229.871 -3 226.598 -3 223.225H3ZM30 192.292C15.4249 192.292 3 205.783 3 223.225H-3C-3 203.185 11.438 186.292 30 186.292V192.292ZM57 223.225C57 205.783 44.5751 192.292 30 192.292V186.292C48.562 186.292 63 203.185 63 223.225H57ZM56.007 231.562C56.6533 228.914 57 226.118 57 223.225H63C63 226.598 62.5957 229.871 61.836 232.985L56.007 231.562Z" fill="black" mask="url(#path-9-inside-5_18:1660)"/>
</g>
<g id="Subtract_6">
<mask id="path-11-inside-6_18:1660" fill="white">
<path fill-rule="evenodd" clip-rule="evenodd" d="M59.179 245.846C56.0258 230.925 44.1583 219.831 30 219.831C15.8417 219.831 3.97423 230.925 0.821041 245.846C0.284244 243.306 0 240.655 0 237.929C0 219.188 13.4315 203.996 30 203.996C46.5685 203.996 60 219.188 60 237.929C60 240.655 59.7158 243.306 59.179 245.846Z"/>
</mask>
<path fill-rule="evenodd" clip-rule="evenodd" d="M59.179 245.846C56.0258 230.925 44.1583 219.831 30 219.831C15.8417 219.831 3.97423 230.925 0.821041 245.846C0.284244 243.306 0 240.655 0 237.929C0 219.188 13.4315 203.996 30 203.996C46.5685 203.996 60 219.188 60 237.929C60 240.655 59.7158 243.306 59.179 245.846Z" fill="#F2EBE1"/>
<path d="M59.179 245.846L62.1141 246.467L56.2438 246.467L59.179 245.846ZM0.821041 245.846L3.75622 246.467H-2.11414L0.821041 245.846ZM56.2438 246.467C53.3246 232.653 42.4728 222.831 30 222.831V216.831C45.8437 216.831 58.7269 229.197 62.1141 245.226L56.2438 246.467ZM30 222.831C17.5272 222.831 6.67541 232.653 3.75622 246.467L-2.11414 245.226C1.27306 229.197 14.1563 216.831 30 216.831V222.831ZM3 237.929C3 240.446 3.26246 242.89 3.75622 245.226L-2.11414 246.467C-2.69397 243.723 -3 240.864 -3 237.929H3ZM30 206.996C15.4249 206.996 3 220.487 3 237.929H-3C-3 217.89 11.438 200.996 30 200.996V206.996ZM57 237.929C57 220.487 44.5751 206.996 30 206.996V200.996C48.562 200.996 63 217.89 63 237.929H57ZM56.2438 245.226C56.7375 242.89 57 240.446 57 237.929H63C63 240.864 62.694 243.723 62.1141 246.467L56.2438 245.226Z" fill="black" mask="url(#path-11-inside-6_18:1660)"/>
</g>
<g id="Subtract_7">
<mask id="path-13-inside-7_18:1660" fill="white">
<path fill-rule="evenodd" clip-rule="evenodd" d="M59.0549 258.854C55.7245 244.219 43.9788 233.404 30 233.404C16.0212 233.404 4.27545 244.219 0.945131 258.854C0.328148 256.142 0 253.3 0 250.371C0 231.63 13.4315 216.438 30 216.438C46.5685 216.438 60 231.63 60 250.371C60 253.3 59.6719 256.142 59.0549 258.854Z"/>
</mask>
<path fill-rule="evenodd" clip-rule="evenodd" d="M59.0549 258.854C55.7245 244.219 43.9788 233.404 30 233.404C16.0212 233.404 4.27545 244.219 0.945131 258.854C0.328148 256.142 0 253.3 0 250.371C0 231.63 13.4315 216.438 30 216.438C46.5685 216.438 60 231.63 60 250.371C60 253.3 59.6719 256.142 59.0549 258.854Z" fill="#F2EBE1"/>
<path d="M59.0549 258.854L61.9801 259.52L56.1296 259.52L59.0549 258.854ZM0.945131 258.854L3.87035 259.52H-1.98009L0.945131 258.854ZM56.1296 259.52C53.0478 245.976 42.316 236.404 30 236.404V230.404C45.6416 230.404 58.4013 242.461 61.9801 258.188L56.1296 259.52ZM30 236.404C17.684 236.404 6.95218 245.976 3.87035 259.52L-1.98009 258.188C1.59872 242.461 14.3584 230.404 30 230.404V236.404ZM3 250.371C3 253.076 3.30299 255.695 3.87035 258.188L-1.98009 259.52C-2.6467 256.59 -3 253.524 -3 250.371H3ZM30 219.438C15.4249 219.438 3 232.929 3 250.371H-3C-3 230.331 11.438 213.438 30 213.438V219.438ZM57 250.371C57 232.929 44.5751 219.438 30 219.438V213.438C48.562 213.438 63 230.331 63 250.371H57ZM56.1296 258.188C56.697 255.695 57 253.076 57 250.371H63C63 253.524 62.6467 256.59 61.9801 259.52L56.1296 258.188Z" fill="black" mask="url(#path-13-inside-7_18:1660)"/>
</g>
<g id="Subtract_8">
<mask id="path-15-inside-8_18:1660" fill="white">
<path fill-rule="evenodd" clip-rule="evenodd" d="M59.0549 272.427C55.7245 257.792 43.9788 246.978 30 246.978C16.0212 246.978 4.27545 257.792 0.945131 272.427C0.328148 269.716 0 266.873 0 263.944C0 245.203 13.4315 230.011 30 230.011C46.5685 230.011 60 245.203 60 263.944C60 266.873 59.6719 269.716 59.0549 272.427Z"/>
</mask>
<path fill-rule="evenodd" clip-rule="evenodd" d="M59.0549 272.427C55.7245 257.792 43.9788 246.978 30 246.978C16.0212 246.978 4.27545 257.792 0.945131 272.427C0.328148 269.716 0 266.873 0 263.944C0 245.203 13.4315 230.011 30 230.011C46.5685 230.011 60 245.203 60 263.944C60 266.873 59.6719 269.716 59.0549 272.427Z" fill="#F2EBE1"/>
<path d="M59.0549 272.427L61.9801 273.093L56.1296 273.093L59.0549 272.427ZM0.945131 272.427L3.87035 273.093H-1.98009L0.945131 272.427ZM56.1296 273.093C53.0478 259.549 42.316 249.978 30 249.978V243.978C45.6416 243.978 58.4013 256.034 61.9801 271.761L56.1296 273.093ZM30 249.978C17.684 249.978 6.95218 259.549 3.87035 273.093L-1.98009 271.761C1.59872 256.034 14.3584 243.978 30 243.978V249.978ZM3 263.944C3 266.649 3.30299 269.268 3.87035 271.761L-1.98009 273.093C-2.6467 270.163 -3 267.097 -3 263.944H3ZM30 233.011C15.4249 233.011 3 246.502 3 263.944H-3C-3 243.905 11.438 227.011 30 227.011V233.011ZM57 263.944C57 246.502 44.5751 233.011 30 233.011V227.011C48.562 227.011 63 243.905 63 263.944H57ZM56.1296 271.761C56.697 269.268 57 266.649 57 263.944H63C63 267.097 62.6467 270.163 61.9801 273.093L56.1296 271.761Z" fill="black" mask="url(#path-15-inside-8_18:1660)"/>
</g>
<g id="Subtract_9">
<mask id="path-17-inside-9_18:1660" fill="white">
<path fill-rule="evenodd" clip-rule="evenodd" d="M59.0549 286C55.7245 271.365 43.9788 260.551 30 260.551C16.0212 260.551 4.27545 271.365 0.945131 286C0.328148 283.289 0 280.446 0 277.517C0 258.776 13.4315 243.584 30 243.584C46.5685 243.584 60 258.776 60 277.517C60 280.446 59.6719 283.289 59.0549 286Z"/>
</mask>
<path fill-rule="evenodd" clip-rule="evenodd" d="M59.0549 286C55.7245 271.365 43.9788 260.551 30 260.551C16.0212 260.551 4.27545 271.365 0.945131 286C0.328148 283.289 0 280.446 0 277.517C0 258.776 13.4315 243.584 30 243.584C46.5685 243.584 60 258.776 60 277.517C60 280.446 59.6719 283.289 59.0549 286Z" fill="#F2EBE1"/>
<path d="M59.0549 286L61.9801 286.666L56.1296 286.666L59.0549 286ZM0.945131 286L3.87035 286.666H-1.98009L0.945131 286ZM56.1296 286.666C53.0478 273.122 42.316 263.551 30 263.551V257.551C45.6416 257.551 58.4013 269.607 61.9801 285.334L56.1296 286.666ZM30 263.551C17.684 263.551 6.95218 273.122 3.87035 286.666L-1.98009 285.334C1.59872 269.607 14.3584 257.551 30 257.551V263.551ZM3 277.517C3 280.222 3.30299 282.841 3.87035 285.334L-1.98009 286.666C-2.6467 283.736 -3 280.67 -3 277.517H3ZM30 246.584C15.4249 246.584 3 260.075 3 277.517H-3C-3 257.478 11.438 240.584 30 240.584V246.584ZM57 277.517C57 260.075 44.5751 246.584 30 246.584V240.584C48.562 240.584 63 257.478 63 277.517H57ZM56.1296 285.334C56.697 282.841 57 280.222 57 277.517H63C63 280.67 62.6467 283.736 61.9801 286.666L56.1296 285.334Z" fill="black" mask="url(#path-17-inside-9_18:1660)"/>
</g>
</g>
<g id="Group 2">
<g id="Subtract_10">
<mask id="path-19-inside-10_18:1660" fill="white">
<path fill-rule="evenodd" clip-rule="evenodd" d="M115.922 394.019C112.421 408.366 100.798 418.903 87 418.903C73.2019 418.903 61.5794 408.366 58.0785 394.019C57.3755 396.9 57 399.934 57 403.067C57 421.808 70.4315 437 87 437C103.569 437 117 421.808 117 403.067C117 399.934 116.624 396.9 115.922 394.019Z"/>
</mask>
<path fill-rule="evenodd" clip-rule="evenodd" d="M115.922 394.019C112.421 408.366 100.798 418.903 87 418.903C73.2019 418.903 61.5794 408.366 58.0785 394.019C57.3755 396.9 57 399.934 57 403.067C57 421.808 70.4315 437 87 437C103.569 437 117 421.808 117 403.067C117 399.934 116.624 396.9 115.922 394.019Z" fill="#F2EBE1"/>
<path d="M115.922 394.019L118.836 393.308L113.007 393.308L115.922 394.019ZM58.0785 394.019L60.993 393.308H55.164L58.0785 394.019ZM113.007 393.308C109.769 406.579 99.1581 415.903 87 415.903V421.903C102.438 421.903 115.072 410.154 118.836 394.73L113.007 393.308ZM87 415.903C74.8419 415.903 64.2313 406.579 60.993 393.308L55.164 394.73C58.9276 410.154 71.5618 421.903 87 421.903V415.903ZM60 403.067C60 400.174 60.3467 397.378 60.993 394.73L55.164 393.308C54.4043 396.421 54 399.694 54 403.067H60ZM87 434C72.4249 434 60 420.509 60 403.067H54C54 423.107 68.438 440 87 440V434ZM114 403.067C114 420.509 101.575 434 87 434V440C105.562 440 120 423.107 120 403.067H114ZM113.007 394.73C113.653 397.378 114 400.174 114 403.067H120C120 399.694 119.596 396.421 118.836 393.308L113.007 394.73Z" fill="black" mask="url(#path-19-inside-10_18:1660)"/>
</g>
<g id="Subtract_11">
<mask id="path-21-inside-11_18:1660" fill="white">
<path fill-rule="evenodd" clip-rule="evenodd" d="M116.179 380.446C113.026 395.367 101.158 406.461 87 406.461C72.8417 406.461 60.9742 395.367 57.821 380.446C57.2842 382.986 57 385.637 57 388.363C57 407.104 70.4315 422.296 87 422.296C103.569 422.296 117 407.104 117 388.363C117 385.637 116.716 382.986 116.179 380.446Z"/>
</mask>
<path fill-rule="evenodd" clip-rule="evenodd" d="M116.179 380.446C113.026 395.367 101.158 406.461 87 406.461C72.8417 406.461 60.9742 395.367 57.821 380.446C57.2842 382.986 57 385.637 57 388.363C57 407.104 70.4315 422.296 87 422.296C103.569 422.296 117 407.104 117 388.363C117 385.637 116.716 382.986 116.179 380.446Z" fill="#F2EBE1"/>
<path d="M116.179 380.446L119.114 379.826H113.244L116.179 380.446ZM57.821 380.446L60.7562 379.826H54.8859L57.821 380.446ZM113.244 379.826C110.325 393.64 99.4728 403.461 87 403.461V409.461C102.844 409.461 115.727 397.095 119.114 381.066L113.244 379.826ZM87 403.461C74.5272 403.461 63.6754 393.64 60.7562 379.826L54.8859 381.066C58.2731 397.095 71.1563 409.461 87 409.461V403.461ZM60 388.363C60 385.846 60.2625 383.403 60.7562 381.066L54.8859 379.826C54.306 382.569 54 385.428 54 388.363H60ZM87 419.296C72.4249 419.296 60 405.805 60 388.363H54C54 408.403 68.438 425.296 87 425.296V419.296ZM114 388.363C114 405.805 101.575 419.296 87 419.296V425.296C105.562 425.296 120 408.403 120 388.363H114ZM113.244 381.066C113.738 383.403 114 385.846 114 388.363H120C120 385.428 119.694 382.569 119.114 379.826L113.244 381.066Z" fill="black" mask="url(#path-21-inside-11_18:1660)"/>
</g>
<g id="Subtract_12">
<mask id="path-23-inside-12_18:1660" fill="white">
<path fill-rule="evenodd" clip-rule="evenodd" d="M116.055 367.438C112.725 382.074 100.979 392.888 87 392.888C73.0212 392.888 61.2755 382.074 57.9451 367.438C57.3281 370.15 57 372.992 57 375.921C57 394.662 70.4315 409.854 87 409.854C103.569 409.854 117 394.662 117 375.921C117 372.992 116.672 370.15 116.055 367.438Z"/>
</mask>
<path fill-rule="evenodd" clip-rule="evenodd" d="M116.055 367.438C112.725 382.074 100.979 392.888 87 392.888C73.0212 392.888 61.2755 382.074 57.9451 367.438C57.3281 370.15 57 372.992 57 375.921C57 394.662 70.4315 409.854 87 409.854C103.569 409.854 117 394.662 117 375.921C117 372.992 116.672 370.15 116.055 367.438Z" fill="#F2EBE1"/>
<path d="M116.055 367.438L118.98 366.773L113.13 366.773L116.055 367.438ZM57.9451 367.438L60.8704 366.773H55.0199L57.9451 367.438ZM113.13 366.773C110.048 380.316 99.316 389.888 87 389.888V395.888C102.642 395.888 115.401 383.831 118.98 368.104L113.13 366.773ZM87 389.888C74.684 389.888 63.9522 380.316 60.8704 366.773L55.0199 368.104C58.5987 383.831 71.3584 395.888 87 395.888V389.888ZM60 375.921C60 373.216 60.303 370.597 60.8704 368.104L55.0199 366.773C54.3533 369.702 54 372.768 54 375.921H60ZM87 406.854C72.4249 406.854 60 393.363 60 375.921H54C54 395.961 68.438 412.854 87 412.854V406.854ZM114 375.921C114 393.363 101.575 406.854 87 406.854V412.854C105.562 412.854 120 395.961 120 375.921H114ZM113.13 368.104C113.697 370.597 114 373.216 114 375.921H120C120 372.768 119.647 369.702 118.98 366.773L113.13 368.104Z" fill="black" mask="url(#path-23-inside-12_18:1660)"/>
</g>
<g id="Subtract_13">
<mask id="path-25-inside-13_18:1660" fill="white">
<path fill-rule="evenodd" clip-rule="evenodd" d="M116.055 353.865C112.725 368.501 100.979 379.315 87 379.315C73.0212 379.315 61.2755 368.501 57.9451 353.865C57.3281 356.577 57 359.419 57 362.348C57 381.089 70.4315 396.281 87 396.281C103.569 396.281 117 381.089 117 362.348C117 359.419 116.672 356.577 116.055 353.865Z"/>
</mask>
<path fill-rule="evenodd" clip-rule="evenodd" d="M116.055 353.865C112.725 368.501 100.979 379.315 87 379.315C73.0212 379.315 61.2755 368.501 57.9451 353.865C57.3281 356.577 57 359.419 57 362.348C57 381.089 70.4315 396.281 87 396.281C103.569 396.281 117 381.089 117 362.348C117 359.419 116.672 356.577 116.055 353.865Z" fill="#F2EBE1"/>
<path d="M116.055 353.865L118.98 353.2L113.13 353.2L116.055 353.865ZM57.9451 353.865L60.8704 353.2L55.0199 353.2L57.9451 353.865ZM113.13 353.2C110.048 366.743 99.316 376.315 87 376.315V382.315C102.642 382.315 115.401 370.258 118.98 354.531L113.13 353.2ZM87 376.315C74.684 376.315 63.9522 366.743 60.8704 353.2L55.0199 354.531C58.5987 370.258 71.3584 382.315 87 382.315V376.315ZM60 362.348C60 359.643 60.303 357.024 60.8704 354.531L55.0199 353.2C54.3533 356.129 54 359.195 54 362.348H60ZM87 393.281C72.4249 393.281 60 379.79 60 362.348H54C54 382.388 68.438 399.281 87 399.281V393.281ZM114 362.348C114 379.79 101.575 393.281 87 393.281V399.281C105.562 399.281 120 382.388 120 362.348H114ZM113.13 354.531C113.697 357.024 114 359.643 114 362.348H120C120 359.195 119.647 356.129 118.98 353.2L113.13 354.531Z" fill="black" mask="url(#path-25-inside-13_18:1660)"/>
</g>
<g id="Subtract_14">
<mask id="path-27-inside-14_18:1660" fill="white">
<path fill-rule="evenodd" clip-rule="evenodd" d="M115.922 339.727C112.421 354.074 100.798 364.61 87 364.61C73.2019 364.61 61.5794 354.074 58.0785 339.727C57.3755 342.607 57 345.642 57 348.775C57 367.516 70.4315 382.708 87 382.708C103.569 382.708 117 367.516 117 348.775C117 345.642 116.624 342.607 115.922 339.727Z"/>
</mask>
<path fill-rule="evenodd" clip-rule="evenodd" d="M115.922 339.727C112.421 354.074 100.798 364.61 87 364.61C73.2019 364.61 61.5794 354.074 58.0785 339.727C57.3755 342.607 57 345.642 57 348.775C57 367.516 70.4315 382.708 87 382.708C103.569 382.708 117 367.516 117 348.775C117 345.642 116.624 342.607 115.922 339.727Z" fill="#F2EBE1"/>
<path d="M115.922 339.727L118.836 339.015L113.007 339.015L115.922 339.727ZM58.0785 339.727L60.993 339.015L55.164 339.015L58.0785 339.727ZM113.007 339.015C109.769 352.286 99.1581 361.61 87 361.61V367.61C102.438 367.61 115.072 355.862 118.836 340.438L113.007 339.015ZM87 361.61C74.8419 361.61 64.2313 352.286 60.993 339.015L55.164 340.438C58.9276 355.862 71.5618 367.61 87 367.61V361.61ZM60 348.775C60 345.882 60.3467 343.086 60.993 340.438L55.164 339.015C54.4043 342.129 54 345.402 54 348.775H60ZM87 379.708C72.4249 379.708 60 366.217 60 348.775H54C54 368.815 68.438 385.708 87 385.708V379.708ZM114 348.775C114 366.217 101.575 379.708 87 379.708V385.708C105.562 385.708 120 368.815 120 348.775H114ZM113.007 340.438C113.653 343.086 114 345.882 114 348.775H120C120 345.402 119.596 342.129 118.836 339.015L113.007 340.438Z" fill="black" mask="url(#path-27-inside-14_18:1660)"/>
</g>
<g id="Subtract_15">
<mask id="path-29-inside-15_18:1660" fill="white">
<path fill-rule="evenodd" clip-rule="evenodd" d="M116.179 326.154C113.026 341.075 101.158 352.169 87 352.169C72.8417 352.169 60.9742 341.075 57.821 326.154C57.2842 328.694 57 331.345 57 334.071C57 352.812 70.4315 368.004 87 368.004C103.569 368.004 117 352.812 117 334.071C117 331.345 116.716 328.694 116.179 326.154Z"/>
</mask>
<path fill-rule="evenodd" clip-rule="evenodd" d="M116.179 326.154C113.026 341.075 101.158 352.169 87 352.169C72.8417 352.169 60.9742 341.075 57.821 326.154C57.2842 328.694 57 331.345 57 334.071C57 352.812 70.4315 368.004 87 368.004C103.569 368.004 117 352.812 117 334.071C117 331.345 116.716 328.694 116.179 326.154Z" fill="#F2EBE1"/>
<path d="M116.179 326.154L119.114 325.533L113.244 325.533L116.179 326.154ZM57.821 326.154L60.7562 325.533H54.8859L57.821 326.154ZM113.244 325.533C110.325 339.347 99.4728 349.169 87 349.169V355.169C102.844 355.169 115.727 342.803 119.114 326.774L113.244 325.533ZM87 349.169C74.5272 349.169 63.6754 339.347 60.7562 325.533L54.8859 326.774C58.2731 342.803 71.1563 355.169 87 355.169V349.169ZM60 334.071C60 331.554 60.2625 329.11 60.7562 326.774L54.8859 325.533C54.306 328.277 54 331.136 54 334.071H60ZM87 365.004C72.4249 365.004 60 351.513 60 334.071H54C54 354.11 68.438 371.004 87 371.004V365.004ZM114 334.071C114 351.513 101.575 365.004 87 365.004V371.004C105.562 371.004 120 354.11 120 334.071H114ZM113.244 326.774C113.738 329.11 114 331.554 114 334.071H120C120 331.136 119.694 328.277 119.114 325.533L113.244 326.774Z" fill="black" mask="url(#path-29-inside-15_18:1660)"/>
</g>
<g id="Subtract_16">
<mask id="path-31-inside-16_18:1660" fill="white">
<path fill-rule="evenodd" clip-rule="evenodd" d="M116.055 313.146C112.725 327.781 100.979 338.595 87 338.595C73.0212 338.595 61.2755 327.781 57.9451 313.146C57.3281 315.857 57 318.7 57 321.629C57 340.37 70.4315 355.562 87 355.562C103.569 355.562 117 340.37 117 321.629C117 318.7 116.672 315.857 116.055 313.146Z"/>
</mask>
<path fill-rule="evenodd" clip-rule="evenodd" d="M116.055 313.146C112.725 327.781 100.979 338.595 87 338.595C73.0212 338.595 61.2755 327.781 57.9451 313.146C57.3281 315.857 57 318.7 57 321.629C57 340.37 70.4315 355.562 87 355.562C103.569 355.562 117 340.37 117 321.629C117 318.7 116.672 315.857 116.055 313.146Z" fill="#F2EBE1"/>
<path d="M116.055 313.146L118.98 312.48L113.13 312.48L116.055 313.146ZM57.9451 313.146L60.8704 312.48H55.0199L57.9451 313.146ZM113.13 312.48C110.048 326.024 99.316 335.595 87 335.595V341.595C102.642 341.595 115.401 329.539 118.98 313.812L113.13 312.48ZM87 335.595C74.684 335.595 63.9522 326.024 60.8704 312.48L55.0199 313.812C58.5987 329.539 71.3584 341.595 87 341.595V335.595ZM60 321.629C60 318.924 60.303 316.305 60.8704 313.812L55.0199 312.48C54.3533 315.41 54 318.476 54 321.629H60ZM87 352.562C72.4249 352.562 60 339.071 60 321.629H54C54 341.668 68.438 358.562 87 358.562V352.562ZM114 321.629C114 339.071 101.575 352.562 87 352.562V358.562C105.562 358.562 120 341.668 120 321.629H114ZM113.13 313.812C113.697 316.305 114 318.924 114 321.629H120C120 318.476 119.647 315.41 118.98 312.48L113.13 313.812Z" fill="black" mask="url(#path-31-inside-16_18:1660)"/>
</g>
<g id="Subtract_17">
<mask id="path-33-inside-17_18:1660" fill="white">
<path fill-rule="evenodd" clip-rule="evenodd" d="M116.055 299.573C112.725 314.208 100.979 325.022 87 325.022C73.0212 325.022 61.2755 314.208 57.9451 299.573C57.3281 302.284 57 305.127 57 308.056C57 326.797 70.4315 341.989 87 341.989C103.569 341.989 117 326.797 117 308.056C117 305.127 116.672 302.284 116.055 299.573Z"/>
</mask>
<path fill-rule="evenodd" clip-rule="evenodd" d="M116.055 299.573C112.725 314.208 100.979 325.022 87 325.022C73.0212 325.022 61.2755 314.208 57.9451 299.573C57.3281 302.284 57 305.127 57 308.056C57 326.797 70.4315 341.989 87 341.989C103.569 341.989 117 326.797 117 308.056C117 305.127 116.672 302.284 116.055 299.573Z" fill="#F2EBE1"/>
<path d="M116.055 299.573L118.98 298.907L113.13 298.907L116.055 299.573ZM57.9451 299.573L60.8704 298.907H55.0199L57.9451 299.573ZM113.13 298.907C110.048 312.451 99.316 322.022 87 322.022V328.022C102.642 328.022 115.401 315.966 118.98 300.239L113.13 298.907ZM87 322.022C74.684 322.022 63.9522 312.451 60.8704 298.907L55.0199 300.239C58.5987 315.966 71.3584 328.022 87 328.022V322.022ZM60 308.056C60 305.351 60.303 302.732 60.8704 300.239L55.0199 298.907C54.3533 301.837 54 304.903 54 308.056H60ZM87 338.989C72.4249 338.989 60 325.498 60 308.056H54C54 328.095 68.438 344.989 87 344.989V338.989ZM114 308.056C114 325.498 101.575 338.989 87 338.989V344.989C105.562 344.989 120 328.095 120 308.056H114ZM113.13 300.239C113.697 302.732 114 305.351 114 308.056H120C120 304.903 119.647 301.837 118.98 298.907L113.13 300.239Z" fill="black" mask="url(#path-33-inside-17_18:1660)"/>
</g>
<g id="Subtract_18">
<mask id="path-35-inside-18_18:1660" fill="white">
<path fill-rule="evenodd" clip-rule="evenodd" d="M116.055 286C112.725 300.635 100.979 311.449 87 311.449C73.0212 311.449 61.2755 300.635 57.9451 286C57.3281 288.711 57 291.554 57 294.483C57 313.224 70.4315 328.416 87 328.416C103.569 328.416 117 313.224 117 294.483C117 291.554 116.672 288.711 116.055 286Z"/>
</mask>
<path fill-rule="evenodd" clip-rule="evenodd" d="M116.055 286C112.725 300.635 100.979 311.449 87 311.449C73.0212 311.449 61.2755 300.635 57.9451 286C57.3281 288.711 57 291.554 57 294.483C57 313.224 70.4315 328.416 87 328.416C103.569 328.416 117 313.224 117 294.483C117 291.554 116.672 288.711 116.055 286Z" fill="#F2EBE1"/>
<path d="M116.055 286L118.98 285.334L113.13 285.334L116.055 286ZM57.9451 286L60.8704 285.334H55.0199L57.9451 286ZM113.13 285.334C110.048 298.878 99.316 308.449 87 308.449V314.449C102.642 314.449 115.401 302.393 118.98 286.666L113.13 285.334ZM87 308.449C74.684 308.449 63.9522 298.878 60.8704 285.334L55.0199 286.666C58.5987 302.393 71.3584 314.449 87 314.449V308.449ZM60 294.483C60 291.778 60.303 289.159 60.8704 286.666L55.0199 285.334C54.3533 288.264 54 291.33 54 294.483H60ZM87 325.416C72.4249 325.416 60 311.925 60 294.483H54C54 314.522 68.438 331.416 87 331.416V325.416ZM114 294.483C114 311.925 101.575 325.416 87 325.416V331.416C105.562 331.416 120 314.522 120 294.483H114ZM113.13 286.666C113.697 289.159 114 291.778 114 294.483H120C120 291.33 119.647 288.264 118.98 285.334L113.13 286.666Z" fill="black" mask="url(#path-35-inside-18_18:1660)"/>
</g>
</g>
<g id="Group 3">
<g id="Subtract_19">
<mask id="path-37-inside-19_18:1660" fill="white">
<path fill-rule="evenodd" clip-rule="evenodd" d="M172.922 177.981C169.421 163.634 157.798 153.097 144 153.097C130.202 153.097 118.579 163.634 115.078 177.981C114.376 175.101 114 172.066 114 168.933C114 150.192 127.431 135 144 135C160.569 135 174 150.192 174 168.933C174 172.066 173.624 175.101 172.922 177.981Z"/>
</mask>
<path fill-rule="evenodd" clip-rule="evenodd" d="M172.922 177.981C169.421 163.634 157.798 153.097 144 153.097C130.202 153.097 118.579 163.634 115.078 177.981C114.376 175.101 114 172.066 114 168.933C114 150.192 127.431 135 144 135C160.569 135 174 150.192 174 168.933C174 172.066 173.624 175.101 172.922 177.981Z" fill="#F2EBE1"/>
<path d="M172.922 177.981L175.836 178.692L170.007 178.692L172.922 177.981ZM115.078 177.981L117.993 178.692H112.164L115.078 177.981ZM170.007 178.692C166.769 165.421 156.158 156.097 144 156.097V150.097C159.438 150.097 172.072 161.846 175.836 177.27L170.007 178.692ZM144 156.097C131.842 156.097 121.231 165.421 117.993 178.692L112.164 177.27C115.928 161.846 128.562 150.097 144 150.097V156.097ZM117 168.933C117 171.826 117.347 174.622 117.993 177.27L112.164 178.692C111.404 175.579 111 172.306 111 168.933H117ZM144 138C129.425 138 117 151.491 117 168.933H111C111 148.893 125.438 132 144 132V138ZM171 168.933C171 151.491 158.575 138 144 138V132C162.562 132 177 148.893 177 168.933H171ZM170.007 177.27C170.653 174.622 171 171.826 171 168.933H177C177 172.306 176.596 175.579 175.836 178.692L170.007 177.27Z" fill="black" mask="url(#path-37-inside-19_18:1660)"/>
</g>
<g id="Subtract_20">
<mask id="path-39-inside-20_18:1660" fill="white">
<path fill-rule="evenodd" clip-rule="evenodd" d="M173.179 191.554C170.026 176.633 158.158 165.539 144 165.539C129.842 165.539 117.974 176.633 114.821 191.554C114.284 189.014 114 186.363 114 183.637C114 164.896 127.431 149.704 144 149.704C160.569 149.704 174 164.896 174 183.637C174 186.363 173.716 189.014 173.179 191.554Z"/>
</mask>
<path fill-rule="evenodd" clip-rule="evenodd" d="M173.179 191.554C170.026 176.633 158.158 165.539 144 165.539C129.842 165.539 117.974 176.633 114.821 191.554C114.284 189.014 114 186.363 114 183.637C114 164.896 127.431 149.704 144 149.704C160.569 149.704 174 164.896 174 183.637C174 186.363 173.716 189.014 173.179 191.554Z" fill="#F2EBE1"/>
<path d="M173.179 191.554L176.114 192.175H170.244L173.179 191.554ZM114.821 191.554L117.756 192.175H111.886L114.821 191.554ZM170.244 192.175C167.325 178.36 156.473 168.539 144 168.539V162.539C159.844 162.539 172.727 174.905 176.114 190.934L170.244 192.175ZM144 168.539C131.527 168.539 120.675 178.36 117.756 192.175L111.886 190.934C115.273 174.905 128.156 162.539 144 162.539V168.539ZM117 183.637C117 186.154 117.262 188.597 117.756 190.934L111.886 192.175C111.306 189.431 111 186.572 111 183.637H117ZM144 152.704C129.425 152.704 117 166.195 117 183.637H111C111 163.597 125.438 146.704 144 146.704V152.704ZM171 183.637C171 166.195 158.575 152.704 144 152.704V146.704C162.562 146.704 177 163.597 177 183.637H171ZM170.244 190.934C170.738 188.597 171 186.154 171 183.637H177C177 186.572 176.694 189.431 176.114 192.175L170.244 190.934Z" fill="black" mask="url(#path-39-inside-20_18:1660)"/>
</g>
<g id="Subtract_21">
<mask id="path-41-inside-21_18:1660" fill="white">
<path fill-rule="evenodd" clip-rule="evenodd" d="M173.055 204.562C169.725 189.926 157.979 179.112 144 179.112C130.021 179.112 118.275 189.926 114.945 204.562C114.328 201.85 114 199.008 114 196.079C114 177.338 127.431 162.146 144 162.146C160.569 162.146 174 177.338 174 196.079C174 199.008 173.672 201.85 173.055 204.562Z"/>
</mask>
<path fill-rule="evenodd" clip-rule="evenodd" d="M173.055 204.562C169.725 189.926 157.979 179.112 144 179.112C130.021 179.112 118.275 189.926 114.945 204.562C114.328 201.85 114 199.008 114 196.079C114 177.338 127.431 162.146 144 162.146C160.569 162.146 174 177.338 174 196.079C174 199.008 173.672 201.85 173.055 204.562Z" fill="#F2EBE1"/>
<path d="M173.055 204.562L175.98 205.227L170.13 205.227L173.055 204.562ZM114.945 204.562L117.87 205.227H112.02L114.945 204.562ZM170.13 205.227C167.048 191.684 156.316 182.112 144 182.112V176.112C159.642 176.112 172.401 188.169 175.98 203.896L170.13 205.227ZM144 182.112C131.684 182.112 120.952 191.684 117.87 205.227L112.02 203.896C115.599 188.169 128.358 176.112 144 176.112V182.112ZM117 196.079C117 198.784 117.303 201.403 117.87 203.896L112.02 205.227C111.353 202.298 111 199.232 111 196.079H117ZM144 165.146C129.425 165.146 117 178.637 117 196.079H111C111 176.039 125.438 159.146 144 159.146V165.146ZM171 196.079C171 178.637 158.575 165.146 144 165.146V159.146C162.562 159.146 177 176.039 177 196.079H171ZM170.13 203.896C170.697 201.403 171 198.784 171 196.079H177C177 199.232 176.647 202.298 175.98 205.227L170.13 203.896Z" fill="black" mask="url(#path-41-inside-21_18:1660)"/>
</g>
<g id="Subtract_22">
<mask id="path-43-inside-22_18:1660" fill="white">
<path fill-rule="evenodd" clip-rule="evenodd" d="M173.055 218.135C169.725 203.5 157.979 192.685 144 192.685C130.021 192.685 118.275 203.5 114.945 218.135C114.328 215.424 114 212.581 114 209.652C114 190.911 127.431 175.719 144 175.719C160.569 175.719 174 190.911 174 209.652C174 212.581 173.672 215.424 173.055 218.135Z"/>
</mask>
<path fill-rule="evenodd" clip-rule="evenodd" d="M173.055 218.135C169.725 203.5 157.979 192.685 144 192.685C130.021 192.685 118.275 203.5 114.945 218.135C114.328 215.424 114 212.581 114 209.652C114 190.911 127.431 175.719 144 175.719C160.569 175.719 174 190.911 174 209.652C174 212.581 173.672 215.424 173.055 218.135Z" fill="#F2EBE1"/>
<path d="M173.055 218.135L175.98 218.801L170.13 218.801L173.055 218.135ZM114.945 218.135L117.87 218.801L112.02 218.801L114.945 218.135ZM170.13 218.801C167.048 205.257 156.316 195.685 144 195.685V189.685C159.642 189.685 172.401 201.742 175.98 217.469L170.13 218.801ZM144 195.685C131.684 195.685 120.952 205.257 117.87 218.801L112.02 217.469C115.599 201.742 128.358 189.685 144 189.685V195.685ZM117 209.652C117 212.357 117.303 214.976 117.87 217.469L112.02 218.801C111.353 215.871 111 212.805 111 209.652H117ZM144 178.719C129.425 178.719 117 192.21 117 209.652H111C111 189.612 125.438 172.719 144 172.719V178.719ZM171 209.652C171 192.21 158.575 178.719 144 178.719V172.719C162.562 172.719 177 189.612 177 209.652H171ZM170.13 217.469C170.697 214.976 171 212.357 171 209.652H177C177 212.805 176.647 215.871 175.98 218.801L170.13 217.469Z" fill="black" mask="url(#path-43-inside-22_18:1660)"/>
</g>
<g id="Subtract_23">
<mask id="path-45-inside-23_18:1660" fill="white">
<path fill-rule="evenodd" clip-rule="evenodd" d="M172.922 232.273C169.421 217.926 157.798 207.39 144 207.39C130.202 207.39 118.579 217.926 115.078 232.273C114.376 229.393 114 226.358 114 223.225C114 204.484 127.431 189.292 144 189.292C160.569 189.292 174 204.484 174 223.225C174 226.358 173.624 229.393 172.922 232.273Z"/>
</mask>
<path fill-rule="evenodd" clip-rule="evenodd" d="M172.922 232.273C169.421 217.926 157.798 207.39 144 207.39C130.202 207.39 118.579 217.926 115.078 232.273C114.376 229.393 114 226.358 114 223.225C114 204.484 127.431 189.292 144 189.292C160.569 189.292 174 204.484 174 223.225C174 226.358 173.624 229.393 172.922 232.273Z" fill="#F2EBE1"/>
<path d="M172.922 232.273L175.836 232.985L170.007 232.985L172.922 232.273ZM115.078 232.273L117.993 232.985L112.164 232.985L115.078 232.273ZM170.007 232.985C166.769 219.714 156.158 210.39 144 210.39V204.39C159.438 204.39 172.072 216.138 175.836 231.562L170.007 232.985ZM144 210.39C131.842 210.39 121.231 219.714 117.993 232.985L112.164 231.562C115.928 216.138 128.562 204.39 144 204.39V210.39ZM117 223.225C117 226.118 117.347 228.914 117.993 231.562L112.164 232.985C111.404 229.871 111 226.598 111 223.225H117ZM144 192.292C129.425 192.292 117 205.783 117 223.225H111C111 203.185 125.438 186.292 144 186.292V192.292ZM171 223.225C171 205.783 158.575 192.292 144 192.292V186.292C162.562 186.292 177 203.185 177 223.225H171ZM170.007 231.562C170.653 228.914 171 226.118 171 223.225H177C177 226.598 176.596 229.871 175.836 232.985L170.007 231.562Z" fill="black" mask="url(#path-45-inside-23_18:1660)"/>
</g>
<g id="Subtract_24">
<mask id="path-47-inside-24_18:1660" fill="white">
<path fill-rule="evenodd" clip-rule="evenodd" d="M173.179 245.846C170.026 230.925 158.158 219.831 144 219.831C129.842 219.831 117.974 230.925 114.821 245.846C114.284 243.306 114 240.655 114 237.929C114 219.188 127.431 203.996 144 203.996C160.569 203.996 174 219.188 174 237.929C174 240.655 173.716 243.306 173.179 245.846Z"/>
</mask>
<path fill-rule="evenodd" clip-rule="evenodd" d="M173.179 245.846C170.026 230.925 158.158 219.831 144 219.831C129.842 219.831 117.974 230.925 114.821 245.846C114.284 243.306 114 240.655 114 237.929C114 219.188 127.431 203.996 144 203.996C160.569 203.996 174 219.188 174 237.929C174 240.655 173.716 243.306 173.179 245.846Z" fill="#F2EBE1"/>
<path d="M173.179 245.846L176.114 246.467L170.244 246.467L173.179 245.846ZM114.821 245.846L117.756 246.467H111.886L114.821 245.846ZM170.244 246.467C167.325 232.653 156.473 222.831 144 222.831V216.831C159.844 216.831 172.727 229.197 176.114 245.226L170.244 246.467ZM144 222.831C131.527 222.831 120.675 232.653 117.756 246.467L111.886 245.226C115.273 229.197 128.156 216.831 144 216.831V222.831ZM117 237.929C117 240.446 117.262 242.89 117.756 245.226L111.886 246.467C111.306 243.723 111 240.864 111 237.929H117ZM144 206.996C129.425 206.996 117 220.487 117 237.929H111C111 217.89 125.438 200.996 144 200.996V206.996ZM171 237.929C171 220.487 158.575 206.996 144 206.996V200.996C162.562 200.996 177 217.89 177 237.929H171ZM170.244 245.226C170.738 242.89 171 240.446 171 237.929H177C177 240.864 176.694 243.723 176.114 246.467L170.244 245.226Z" fill="black" mask="url(#path-47-inside-24_18:1660)"/>
</g>
<g id="Subtract_25">
<mask id="path-49-inside-25_18:1660" fill="white">
<path fill-rule="evenodd" clip-rule="evenodd" d="M173.055 258.854C169.725 244.219 157.979 233.404 144 233.404C130.021 233.404 118.275 244.219 114.945 258.854C114.328 256.142 114 253.3 114 250.371C114 231.63 127.431 216.438 144 216.438C160.569 216.438 174 231.63 174 250.371C174 253.3 173.672 256.142 173.055 258.854Z"/>
</mask>
<path fill-rule="evenodd" clip-rule="evenodd" d="M173.055 258.854C169.725 244.219 157.979 233.404 144 233.404C130.021 233.404 118.275 244.219 114.945 258.854C114.328 256.142 114 253.3 114 250.371C114 231.63 127.431 216.438 144 216.438C160.569 216.438 174 231.63 174 250.371C174 253.3 173.672 256.142 173.055 258.854Z" fill="#F2EBE1"/>
<path d="M173.055 258.854L175.98 259.52L170.13 259.52L173.055 258.854ZM114.945 258.854L117.87 259.52H112.02L114.945 258.854ZM170.13 259.52C167.048 245.976 156.316 236.404 144 236.404V230.404C159.642 230.404 172.401 242.461 175.98 258.188L170.13 259.52ZM144 236.404C131.684 236.404 120.952 245.976 117.87 259.52L112.02 258.188C115.599 242.461 128.358 230.404 144 230.404V236.404ZM117 250.371C117 253.076 117.303 255.695 117.87 258.188L112.02 259.52C111.353 256.59 111 253.524 111 250.371H117ZM144 219.438C129.425 219.438 117 232.929 117 250.371H111C111 230.331 125.438 213.438 144 213.438V219.438ZM171 250.371C171 232.929 158.575 219.438 144 219.438V213.438C162.562 213.438 177 230.331 177 250.371H171ZM170.13 258.188C170.697 255.695 171 253.076 171 250.371H177C177 253.524 176.647 256.59 175.98 259.52L170.13 258.188Z" fill="black" mask="url(#path-49-inside-25_18:1660)"/>
</g>
<g id="Subtract_26">
<mask id="path-51-inside-26_18:1660" fill="white">
<path fill-rule="evenodd" clip-rule="evenodd" d="M173.055 272.427C169.725 257.792 157.979 246.978 144 246.978C130.021 246.978 118.275 257.792 114.945 272.427C114.328 269.716 114 266.873 114 263.944C114 245.203 127.431 230.011 144 230.011C160.569 230.011 174 245.203 174 263.944C174 266.873 173.672 269.716 173.055 272.427Z"/>
</mask>
<path fill-rule="evenodd" clip-rule="evenodd" d="M173.055 272.427C169.725 257.792 157.979 246.978 144 246.978C130.021 246.978 118.275 257.792 114.945 272.427C114.328 269.716 114 266.873 114 263.944C114 245.203 127.431 230.011 144 230.011C160.569 230.011 174 245.203 174 263.944C174 266.873 173.672 269.716 173.055 272.427Z" fill="#F2EBE1"/>
<path d="M173.055 272.427L175.98 273.093L170.13 273.093L173.055 272.427ZM114.945 272.427L117.87 273.093H112.02L114.945 272.427ZM170.13 273.093C167.048 259.549 156.316 249.978 144 249.978V243.978C159.642 243.978 172.401 256.034 175.98 271.761L170.13 273.093ZM144 249.978C131.684 249.978 120.952 259.549 117.87 273.093L112.02 271.761C115.599 256.034 128.358 243.978 144 243.978V249.978ZM117 263.944C117 266.649 117.303 269.268 117.87 271.761L112.02 273.093C111.353 270.163 111 267.097 111 263.944H117ZM144 233.011C129.425 233.011 117 246.502 117 263.944H111C111 243.905 125.438 227.011 144 227.011V233.011ZM171 263.944C171 246.502 158.575 233.011 144 233.011V227.011C162.562 227.011 177 243.905 177 263.944H171ZM170.13 271.761C170.697 269.268 171 266.649 171 263.944H177C177 267.097 176.647 270.163 175.98 273.093L170.13 271.761Z" fill="black" mask="url(#path-51-inside-26_18:1660)"/>
</g>
<g id="Subtract_27">
<mask id="path-53-inside-27_18:1660" fill="white">
<path fill-rule="evenodd" clip-rule="evenodd" d="M173.055 286C169.725 271.365 157.979 260.551 144 260.551C130.021 260.551 118.275 271.365 114.945 286C114.328 283.289 114 280.446 114 277.517C114 258.776 127.431 243.584 144 243.584C160.569 243.584 174 258.776 174 277.517C174 280.446 173.672 283.289 173.055 286Z"/>
</mask>
<path fill-rule="evenodd" clip-rule="evenodd" d="M173.055 286C169.725 271.365 157.979 260.551 144 260.551C130.021 260.551 118.275 271.365 114.945 286C114.328 283.289 114 280.446 114 277.517C114 258.776 127.431 243.584 144 243.584C160.569 243.584 174 258.776 174 277.517C174 280.446 173.672 283.289 173.055 286Z" fill="#F2EBE1"/>
<path d="M173.055 286L175.98 286.666L170.13 286.666L173.055 286ZM114.945 286L117.87 286.666H112.02L114.945 286ZM170.13 286.666C167.048 273.122 156.316 263.551 144 263.551V257.551C159.642 257.551 172.401 269.607 175.98 285.334L170.13 286.666ZM144 263.551C131.684 263.551 120.952 273.122 117.87 286.666L112.02 285.334C115.599 269.607 128.358 257.551 144 257.551V263.551ZM117 277.517C117 280.222 117.303 282.841 117.87 285.334L112.02 286.666C111.353 283.736 111 280.67 111 277.517H117ZM144 246.584C129.425 246.584 117 260.075 117 277.517H111C111 257.478 125.438 240.584 144 240.584V246.584ZM171 277.517C171 260.075 158.575 246.584 144 246.584V240.584C162.562 240.584 177 257.478 177 277.517H171ZM170.13 285.334C170.697 282.841 171 280.222 171 277.517H177C177 280.67 176.647 283.736 175.98 286.666L170.13 285.334Z" fill="black" mask="url(#path-53-inside-27_18:1660)"/>
</g>
</g>
<g id="Group 4">
<g id="Subtract_28">
<mask id="path-55-inside-28_18:1660" fill="white">
<path fill-rule="evenodd" clip-rule="evenodd" d="M229.922 265.019C226.421 279.366 214.798 289.903 201 289.903C187.202 289.903 175.579 279.366 172.078 265.019C171.376 267.899 171 270.934 171 274.067C171 292.808 184.431 308 201 308C217.569 308 231 292.808 231 274.067C231 270.934 230.624 267.899 229.922 265.019Z"/>
</mask>
<path fill-rule="evenodd" clip-rule="evenodd" d="M229.922 265.019C226.421 279.366 214.798 289.903 201 289.903C187.202 289.903 175.579 279.366 172.078 265.019C171.376 267.899 171 270.934 171 274.067C171 292.808 184.431 308 201 308C217.569 308 231 292.808 231 274.067C231 270.934 230.624 267.899 229.922 265.019Z" fill="#F2EBE1"/>
<path d="M229.922 265.019L232.836 264.308L227.007 264.308L229.922 265.019ZM172.078 265.019L174.993 264.308H169.164L172.078 265.019ZM227.007 264.308C223.769 277.579 213.158 286.903 201 286.903V292.903C216.438 292.903 229.072 281.154 232.836 265.73L227.007 264.308ZM201 286.903C188.842 286.903 178.231 277.579 174.993 264.308L169.164 265.73C172.928 281.154 185.562 292.903 201 292.903V286.903ZM174 274.067C174 271.174 174.347 268.378 174.993 265.73L169.164 264.308C168.404 267.421 168 270.694 168 274.067H174ZM201 305C186.425 305 174 291.509 174 274.067H168C168 294.107 182.438 311 201 311V305ZM228 274.067C228 291.509 215.575 305 201 305V311C219.562 311 234 294.107 234 274.067H228ZM227.007 265.73C227.653 268.378 228 271.174 228 274.067H234C234 270.694 233.596 267.421 232.836 264.308L227.007 265.73Z" fill="black" mask="url(#path-55-inside-28_18:1660)"/>
</g>
<g id="Subtract_29">
<mask id="path-57-inside-29_18:1660" fill="white">
<path fill-rule="evenodd" clip-rule="evenodd" d="M230.179 251.446C227.026 266.367 215.158 277.461 201 277.461C186.842 277.461 174.974 266.367 171.821 251.446C171.284 253.986 171 256.637 171 259.363C171 278.104 184.431 293.296 201 293.296C217.569 293.296 231 278.104 231 259.363C231 256.637 230.716 253.986 230.179 251.446Z"/>
</mask>
<path fill-rule="evenodd" clip-rule="evenodd" d="M230.179 251.446C227.026 266.367 215.158 277.461 201 277.461C186.842 277.461 174.974 266.367 171.821 251.446C171.284 253.986 171 256.637 171 259.363C171 278.104 184.431 293.296 201 293.296C217.569 293.296 231 278.104 231 259.363C231 256.637 230.716 253.986 230.179 251.446Z" fill="#F2EBE1"/>
<path d="M230.179 251.446L233.114 250.825H227.244L230.179 251.446ZM171.821 251.446L174.756 250.825H168.886L171.821 251.446ZM227.244 250.825C224.325 264.64 213.473 274.461 201 274.461V280.461C216.844 280.461 229.727 268.095 233.114 252.066L227.244 250.825ZM201 274.461C188.527 274.461 177.675 264.64 174.756 250.825L168.886 252.066C172.273 268.095 185.156 280.461 201 280.461V274.461ZM174 259.363C174 256.846 174.262 254.403 174.756 252.066L168.886 250.825C168.306 253.569 168 256.428 168 259.363H174ZM201 290.296C186.425 290.296 174 276.805 174 259.363H168C168 279.403 182.438 296.296 201 296.296V290.296ZM228 259.363C228 276.805 215.575 290.296 201 290.296V296.296C219.562 296.296 234 279.403 234 259.363H228ZM227.244 252.066C227.738 254.403 228 256.846 228 259.363H234C234 256.428 233.694 253.569 233.114 250.825L227.244 252.066Z" fill="black" mask="url(#path-57-inside-29_18:1660)"/>
</g>
<g id="Subtract_30">
<mask id="path-59-inside-30_18:1660" fill="white">
<path fill-rule="evenodd" clip-rule="evenodd" d="M230.055 238.438C226.725 253.074 214.979 263.888 201 263.888C187.021 263.888 175.275 253.074 171.945 238.438C171.328 241.15 171 243.992 171 246.921C171 265.662 184.431 280.854 201 280.854C217.569 280.854 231 265.662 231 246.921C231 243.992 230.672 241.15 230.055 238.438Z"/>
</mask>
<path fill-rule="evenodd" clip-rule="evenodd" d="M230.055 238.438C226.725 253.074 214.979 263.888 201 263.888C187.021 263.888 175.275 253.074 171.945 238.438C171.328 241.15 171 243.992 171 246.921C171 265.662 184.431 280.854 201 280.854C217.569 280.854 231 265.662 231 246.921C231 243.992 230.672 241.15 230.055 238.438Z" fill="#F2EBE1"/>
<path d="M230.055 238.438L232.98 237.773L227.13 237.773L230.055 238.438ZM171.945 238.438L174.87 237.773H169.02L171.945 238.438ZM227.13 237.773C224.048 251.316 213.316 260.888 201 260.888V266.888C216.642 266.888 229.401 254.831 232.98 239.104L227.13 237.773ZM201 260.888C188.684 260.888 177.952 251.316 174.87 237.773L169.02 239.104C172.599 254.831 185.358 266.888 201 266.888V260.888ZM174 246.921C174 244.216 174.303 241.597 174.87 239.104L169.02 237.773C168.353 240.702 168 243.768 168 246.921H174ZM201 277.854C186.425 277.854 174 264.363 174 246.921H168C168 266.961 182.438 283.854 201 283.854V277.854ZM228 246.921C228 264.363 215.575 277.854 201 277.854V283.854C219.562 283.854 234 266.961 234 246.921H228ZM227.13 239.104C227.697 241.597 228 244.216 228 246.921H234C234 243.768 233.647 240.702 232.98 237.773L227.13 239.104Z" fill="black" mask="url(#path-59-inside-30_18:1660)"/>
</g>
<g id="Subtract_31">
<mask id="path-61-inside-31_18:1660" fill="white">
<path fill-rule="evenodd" clip-rule="evenodd" d="M230.055 224.865C226.725 239.5 214.979 250.315 201 250.315C187.021 250.315 175.275 239.5 171.945 224.865C171.328 227.576 171 230.419 171 233.348C171 252.089 184.431 267.281 201 267.281C217.569 267.281 231 252.089 231 233.348C231 230.419 230.672 227.576 230.055 224.865Z"/>
</mask>
<path fill-rule="evenodd" clip-rule="evenodd" d="M230.055 224.865C226.725 239.5 214.979 250.315 201 250.315C187.021 250.315 175.275 239.5 171.945 224.865C171.328 227.576 171 230.419 171 233.348C171 252.089 184.431 267.281 201 267.281C217.569 267.281 231 252.089 231 233.348C231 230.419 230.672 227.576 230.055 224.865Z" fill="#F2EBE1"/>
<path d="M230.055 224.865L232.98 224.199L227.13 224.199L230.055 224.865ZM171.945 224.865L174.87 224.199L169.02 224.199L171.945 224.865ZM227.13 224.199C224.048 237.743 213.316 247.315 201 247.315V253.315C216.642 253.315 229.401 241.258 232.98 225.531L227.13 224.199ZM201 247.315C188.684 247.315 177.952 237.743 174.87 224.199L169.02 225.531C172.599 241.258 185.358 253.315 201 253.315V247.315ZM174 233.348C174 230.643 174.303 228.024 174.87 225.531L169.02 224.199C168.353 227.129 168 230.195 168 233.348H174ZM201 264.281C186.425 264.281 174 250.79 174 233.348H168C168 253.388 182.438 270.281 201 270.281V264.281ZM228 233.348C228 250.79 215.575 264.281 201 264.281V270.281C219.562 270.281 234 253.388 234 233.348H228ZM227.13 225.531C227.697 228.024 228 230.643 228 233.348H234C234 230.195 233.647 227.129 232.98 224.199L227.13 225.531Z" fill="black" mask="url(#path-61-inside-31_18:1660)"/>
</g>
<g id="Subtract_32">
<mask id="path-63-inside-32_18:1660" fill="white">
<path fill-rule="evenodd" clip-rule="evenodd" d="M229.922 210.727C226.421 225.074 214.798 235.61 201 235.61C187.202 235.61 175.579 225.074 172.078 210.727C171.376 213.607 171 216.642 171 219.775C171 238.516 184.431 253.708 201 253.708C217.569 253.708 231 238.516 231 219.775C231 216.642 230.624 213.607 229.922 210.727Z"/>
</mask>
<path fill-rule="evenodd" clip-rule="evenodd" d="M229.922 210.727C226.421 225.074 214.798 235.61 201 235.61C187.202 235.61 175.579 225.074 172.078 210.727C171.376 213.607 171 216.642 171 219.775C171 238.516 184.431 253.708 201 253.708C217.569 253.708 231 238.516 231 219.775C231 216.642 230.624 213.607 229.922 210.727Z" fill="#F2EBE1"/>
<path d="M229.922 210.727L232.836 210.015L227.007 210.015L229.922 210.727ZM172.078 210.727L174.993 210.015L169.164 210.015L172.078 210.727ZM227.007 210.015C223.769 223.286 213.158 232.61 201 232.61V238.61C216.438 238.61 229.072 226.862 232.836 211.438L227.007 210.015ZM201 232.61C188.842 232.61 178.231 223.286 174.993 210.015L169.164 211.438C172.928 226.862 185.562 238.61 201 238.61V232.61ZM174 219.775C174 216.882 174.347 214.086 174.993 211.438L169.164 210.015C168.404 213.129 168 216.402 168 219.775H174ZM201 250.708C186.425 250.708 174 237.217 174 219.775H168C168 239.815 182.438 256.708 201 256.708V250.708ZM228 219.775C228 237.217 215.575 250.708 201 250.708V256.708C219.562 256.708 234 239.815 234 219.775H228ZM227.007 211.438C227.653 214.086 228 216.882 228 219.775H234C234 216.402 233.596 213.129 232.836 210.015L227.007 211.438Z" fill="black" mask="url(#path-63-inside-32_18:1660)"/>
</g>
<g id="Subtract_33">
<mask id="path-65-inside-33_18:1660" fill="white">
<path fill-rule="evenodd" clip-rule="evenodd" d="M230.179 197.154C227.026 212.075 215.158 223.169 201 223.169C186.842 223.169 174.974 212.075 171.821 197.154C171.284 199.694 171 202.345 171 205.071C171 223.812 184.431 239.004 201 239.004C217.569 239.004 231 223.812 231 205.071C231 202.345 230.716 199.694 230.179 197.154Z"/>
</mask>
<path fill-rule="evenodd" clip-rule="evenodd" d="M230.179 197.154C227.026 212.075 215.158 223.169 201 223.169C186.842 223.169 174.974 212.075 171.821 197.154C171.284 199.694 171 202.345 171 205.071C171 223.812 184.431 239.004 201 239.004C217.569 239.004 231 223.812 231 205.071C231 202.345 230.716 199.694 230.179 197.154Z" fill="#F2EBE1"/>
<path d="M230.179 197.154L233.114 196.533L227.244 196.533L230.179 197.154ZM171.821 197.154L174.756 196.533H168.886L171.821 197.154ZM227.244 196.533C224.325 210.347 213.473 220.169 201 220.169V226.169C216.844 226.169 229.727 213.803 233.114 197.774L227.244 196.533ZM201 220.169C188.527 220.169 177.675 210.347 174.756 196.533L168.886 197.774C172.273 213.803 185.156 226.169 201 226.169V220.169ZM174 205.071C174 202.554 174.262 200.11 174.756 197.774L168.886 196.533C168.306 199.277 168 202.136 168 205.071H174ZM201 236.004C186.425 236.004 174 222.513 174 205.071H168C168 225.11 182.438 242.004 201 242.004V236.004ZM228 205.071C228 222.513 215.575 236.004 201 236.004V242.004C219.562 242.004 234 225.11 234 205.071H228ZM227.244 197.774C227.738 200.11 228 202.554 228 205.071H234C234 202.136 233.694 199.277 233.114 196.533L227.244 197.774Z" fill="black" mask="url(#path-65-inside-33_18:1660)"/>
</g>
<g id="Subtract_34">
<mask id="path-67-inside-34_18:1660" fill="white">
<path fill-rule="evenodd" clip-rule="evenodd" d="M230.055 184.146C226.725 198.781 214.979 209.596 201 209.596C187.021 209.596 175.275 198.781 171.945 184.146C171.328 186.858 171 189.7 171 192.629C171 211.37 184.431 226.562 201 226.562C217.569 226.562 231 211.37 231 192.629C231 189.7 230.672 186.858 230.055 184.146Z"/>
</mask>
<path fill-rule="evenodd" clip-rule="evenodd" d="M230.055 184.146C226.725 198.781 214.979 209.596 201 209.596C187.021 209.596 175.275 198.781 171.945 184.146C171.328 186.858 171 189.7 171 192.629C171 211.37 184.431 226.562 201 226.562C217.569 226.562 231 211.37 231 192.629C231 189.7 230.672 186.858 230.055 184.146Z" fill="#F2EBE1"/>
<path d="M230.055 184.146L232.98 183.48L227.13 183.48L230.055 184.146ZM171.945 184.146L174.87 183.48H169.02L171.945 184.146ZM227.13 183.48C224.048 197.024 213.316 206.596 201 206.596V212.596C216.642 212.596 229.401 200.539 232.98 184.812L227.13 183.48ZM201 206.596C188.684 206.596 177.952 197.024 174.87 183.48L169.02 184.812C172.599 200.539 185.358 212.596 201 212.596V206.596ZM174 192.629C174 189.924 174.303 187.305 174.87 184.812L169.02 183.48C168.353 186.41 168 189.476 168 192.629H174ZM201 223.562C186.425 223.562 174 210.071 174 192.629H168C168 212.669 182.438 229.562 201 229.562V223.562ZM228 192.629C228 210.071 215.575 223.562 201 223.562V229.562C219.562 229.562 234 212.669 234 192.629H228ZM227.13 184.812C227.697 187.305 228 189.924 228 192.629H234C234 189.476 233.647 186.41 232.98 183.48L227.13 184.812Z" fill="black" mask="url(#path-67-inside-34_18:1660)"/>
</g>
<g id="Subtract_35">
<mask id="path-69-inside-35_18:1660" fill="white">
<path fill-rule="evenodd" clip-rule="evenodd" d="M230.055 170.573C226.725 185.208 214.979 196.022 201 196.022C187.021 196.022 175.275 185.208 171.945 170.573C171.328 173.284 171 176.127 171 179.056C171 197.797 184.431 212.989 201 212.989C217.569 212.989 231 197.797 231 179.056C231 176.127 230.672 173.284 230.055 170.573Z"/>
</mask>
<path fill-rule="evenodd" clip-rule="evenodd" d="M230.055 170.573C226.725 185.208 214.979 196.022 201 196.022C187.021 196.022 175.275 185.208 171.945 170.573C171.328 173.284 171 176.127 171 179.056C171 197.797 184.431 212.989 201 212.989C217.569 212.989 231 197.797 231 179.056C231 176.127 230.672 173.284 230.055 170.573Z" fill="#F2EBE1"/>
<path d="M230.055 170.573L232.98 169.907L227.13 169.907L230.055 170.573ZM171.945 170.573L174.87 169.907H169.02L171.945 170.573ZM227.13 169.907C224.048 183.451 213.316 193.022 201 193.022V199.022C216.642 199.022 229.401 186.966 232.98 171.239L227.13 169.907ZM201 193.022C188.684 193.022 177.952 183.451 174.87 169.907L169.02 171.239C172.599 186.966 185.358 199.022 201 199.022V193.022ZM174 179.056C174 176.351 174.303 173.732 174.87 171.239L169.02 169.907C168.353 172.837 168 175.903 168 179.056H174ZM201 209.989C186.425 209.989 174 196.498 174 179.056H168C168 199.095 182.438 215.989 201 215.989V209.989ZM228 179.056C228 196.498 215.575 209.989 201 209.989V215.989C219.562 215.989 234 199.095 234 179.056H228ZM227.13 171.239C227.697 173.732 228 176.351 228 179.056H234C234 175.903 233.647 172.837 232.98 169.907L227.13 171.239Z" fill="black" mask="url(#path-69-inside-35_18:1660)"/>
</g>
<g id="Subtract_36">
<mask id="path-71-inside-36_18:1660" fill="white">
<path fill-rule="evenodd" clip-rule="evenodd" d="M230.055 157C226.725 171.635 214.979 182.449 201 182.449C187.021 182.449 175.275 171.635 171.945 157C171.328 159.711 171 162.554 171 165.483C171 184.224 184.431 199.416 201 199.416C217.569 199.416 231 184.224 231 165.483C231 162.554 230.672 159.711 230.055 157Z"/>
</mask>
<path fill-rule="evenodd" clip-rule="evenodd" d="M230.055 157C226.725 171.635 214.979 182.449 201 182.449C187.021 182.449 175.275 171.635 171.945 157C171.328 159.711 171 162.554 171 165.483C171 184.224 184.431 199.416 201 199.416C217.569 199.416 231 184.224 231 165.483C231 162.554 230.672 159.711 230.055 157Z" fill="#F2EBE1"/>
<path d="M230.055 157L232.98 156.334L227.13 156.334L230.055 157ZM171.945 157L174.87 156.334H169.02L171.945 157ZM227.13 156.334C224.048 169.878 213.316 179.449 201 179.449V185.449C216.642 185.449 229.401 173.393 232.98 157.666L227.13 156.334ZM201 179.449C188.684 179.449 177.952 169.878 174.87 156.334L169.02 157.666C172.599 173.393 185.358 185.449 201 185.449V179.449ZM174 165.483C174 162.778 174.303 160.159 174.87 157.666L169.02 156.334C168.353 159.264 168 162.33 168 165.483H174ZM201 196.416C186.425 196.416 174 182.925 174 165.483H168C168 185.522 182.438 202.416 201 202.416V196.416ZM228 165.483C228 182.925 215.575 196.416 201 196.416V202.416C219.562 202.416 234 185.522 234 165.483H228ZM227.13 157.666C227.697 160.159 228 162.778 228 165.483H234C234 162.33 233.647 159.264 232.98 156.334L227.13 157.666Z" fill="black" mask="url(#path-71-inside-36_18:1660)"/>
</g>
</g>
<g id="Group 5">
<g id="Subtract_37">
<mask id="path-73-inside-37_18:1660" fill="white">
<path fill-rule="evenodd" clip-rule="evenodd" d="M286.922 42.9813C283.421 28.6338 271.798 18.0974 258 18.0974C244.202 18.0974 232.579 28.6338 229.078 42.9813C228.376 40.1006 228 37.0662 228 33.9326C228 15.1922 241.431 6.10352e-05 258 6.10352e-05C274.569 6.10352e-05 288 15.1922 288 33.9326C288 37.0662 287.624 40.1006 286.922 42.9813Z"/>
</mask>
<path fill-rule="evenodd" clip-rule="evenodd" d="M286.922 42.9813C283.421 28.6338 271.798 18.0974 258 18.0974C244.202 18.0974 232.579 28.6338 229.078 42.9813C228.376 40.1006 228 37.0662 228 33.9326C228 15.1922 241.431 6.10352e-05 258 6.10352e-05C274.569 6.10352e-05 288 15.1922 288 33.9326C288 37.0662 287.624 40.1006 286.922 42.9813Z" fill="#F2EBE1"/>
<path d="M286.922 42.9813L289.836 43.6925L284.007 43.6925L286.922 42.9813ZM229.078 42.9813L231.993 43.6925H226.164L229.078 42.9813ZM284.007 43.6925C280.769 30.4214 270.158 21.0974 258 21.0974V15.0974C273.438 15.0974 286.072 26.8461 289.836 42.2701L284.007 43.6925ZM258 21.0974C245.842 21.0974 235.231 30.4214 231.993 43.6925L226.164 42.2702C229.928 26.8461 242.562 15.0974 258 15.0974V21.0974ZM231 33.9326C231 36.8262 231.347 39.6219 231.993 42.2702L226.164 43.6925C225.404 40.5793 225 37.3062 225 33.9326H231ZM258 3.00005C243.425 3.00005 231 16.4911 231 33.9326H225C225 13.8933 239.438 -2.99995 258 -2.99995V3.00005ZM285 33.9326C285 16.4911 272.575 3.00005 258 3.00005V-2.99995C276.562 -2.99995 291 13.8933 291 33.9326H285ZM284.007 42.2701C284.653 39.6219 285 36.8262 285 33.9326H291C291 37.3062 290.596 40.5793 289.836 43.6925L284.007 42.2701Z" fill="black" mask="url(#path-73-inside-37_18:1660)"/>
</g>
<g id="Subtract_38">
<mask id="path-75-inside-38_18:1660" fill="white">
<path fill-rule="evenodd" clip-rule="evenodd" d="M287.179 56.5543C284.026 41.6329 272.158 30.5393 258 30.5393C243.842 30.5393 231.974 41.6329 228.821 56.5543C228.284 54.0141 228 51.363 228 48.6367C228 29.8963 241.431 14.7041 258 14.7041C274.569 14.7041 288 29.8963 288 48.6367C288 51.363 287.716 54.0141 287.179 56.5543Z"/>
</mask>
<path fill-rule="evenodd" clip-rule="evenodd" d="M287.179 56.5543C284.026 41.6329 272.158 30.5393 258 30.5393C243.842 30.5393 231.974 41.6329 228.821 56.5543C228.284 54.0141 228 51.363 228 48.6367C228 29.8963 241.431 14.7041 258 14.7041C274.569 14.7041 288 29.8963 288 48.6367C288 51.363 287.716 54.0141 287.179 56.5543Z" fill="#F2EBE1"/>
<path d="M287.179 56.5543L290.114 57.1746H284.244L287.179 56.5543ZM228.821 56.5543L231.756 57.1746H225.886L228.821 56.5543ZM284.244 57.1746C281.325 43.3605 270.473 33.5393 258 33.5393V27.5393C273.844 27.5393 286.727 39.9053 290.114 55.9341L284.244 57.1746ZM258 33.5393C245.527 33.5393 234.675 43.3605 231.756 57.1746L225.886 55.9341C229.273 39.9053 242.156 27.5393 258 27.5393V33.5393ZM231 48.6367C231 51.1542 231.262 53.5975 231.756 55.9341L225.886 57.1746C225.306 54.4307 225 51.5717 225 48.6367H231ZM258 17.7041C243.425 17.7041 231 31.1951 231 48.6367H225C225 28.5974 239.438 11.7041 258 11.7041V17.7041ZM285 48.6367C285 31.1951 272.575 17.7041 258 17.7041V11.7041C276.562 11.7041 291 28.5974 291 48.6367H285ZM284.244 55.9341C284.738 53.5975 285 51.1542 285 48.6367H291C291 51.5717 290.694 54.4307 290.114 57.1746L284.244 55.9341Z" fill="black" mask="url(#path-75-inside-38_18:1660)"/>
</g>
<g id="Subtract_39">
<mask id="path-77-inside-39_18:1660" fill="white">
<path fill-rule="evenodd" clip-rule="evenodd" d="M287.055 69.5618C283.725 54.9264 271.979 44.1123 258 44.1123C244.021 44.1123 232.275 54.9264 228.945 69.5618C228.328 66.8504 228 64.0078 228 61.0786C228 42.3382 241.431 27.146 258 27.146C274.569 27.146 288 42.3382 288 61.0786C288 64.0079 287.672 66.8504 287.055 69.5618Z"/>
</mask>
<path fill-rule="evenodd" clip-rule="evenodd" d="M287.055 69.5618C283.725 54.9264 271.979 44.1123 258 44.1123C244.021 44.1123 232.275 54.9264 228.945 69.5618C228.328 66.8504 228 64.0078 228 61.0786C228 42.3382 241.431 27.146 258 27.146C274.569 27.146 288 42.3382 288 61.0786C288 64.0079 287.672 66.8504 287.055 69.5618Z" fill="#F2EBE1"/>
<path d="M287.055 69.5618L289.98 70.2274L284.13 70.2274L287.055 69.5618ZM228.945 69.5618L231.87 70.2274H226.02L228.945 69.5618ZM284.13 70.2274C281.048 56.6841 270.316 47.1123 258 47.1123V41.1123C273.642 41.1123 286.401 53.1688 289.98 68.8961L284.13 70.2274ZM258 47.1123C245.684 47.1123 234.952 56.6841 231.87 70.2274L226.02 68.8961C229.599 53.1688 242.358 41.1123 258 41.1123V47.1123ZM231 61.0786C231 63.7835 231.303 66.4028 231.87 68.8961L226.02 70.2274C225.353 67.298 225 64.2322 225 61.0786H231ZM258 30.146C243.425 30.146 231 43.6371 231 61.0786H225C225 41.0393 239.438 24.146 258 24.146V30.146ZM285 61.0786C285 43.6371 272.575 30.146 258 30.146V24.146C276.562 24.146 291 41.0393 291 61.0786H285ZM284.13 68.8961C284.697 66.4028 285 63.7835 285 61.0786H291C291 64.2322 290.647 67.298 289.98 70.2274L284.13 68.8961Z" fill="black" mask="url(#path-77-inside-39_18:1660)"/>
</g>
<g id="Subtract_40">
<mask id="path-79-inside-40_18:1660" fill="white">
<path fill-rule="evenodd" clip-rule="evenodd" d="M287.055 83.1349C283.725 68.4995 271.979 57.6855 258 57.6855C244.021 57.6855 232.275 68.4995 228.945 83.1349C228.328 80.4235 228 77.581 228 74.6517C228 55.9113 241.431 40.7192 258 40.7192C274.569 40.7192 288 55.9113 288 74.6517C288 77.581 287.672 80.4235 287.055 83.1349Z"/>
</mask>
<path fill-rule="evenodd" clip-rule="evenodd" d="M287.055 83.1349C283.725 68.4995 271.979 57.6855 258 57.6855C244.021 57.6855 232.275 68.4995 228.945 83.1349C228.328 80.4235 228 77.581 228 74.6517C228 55.9113 241.431 40.7192 258 40.7192C274.569 40.7192 288 55.9113 288 74.6517C288 77.581 287.672 80.4235 287.055 83.1349Z" fill="#F2EBE1"/>
<path d="M287.055 83.1349L289.98 83.8005L284.13 83.8005L287.055 83.1349ZM228.945 83.1349L231.87 83.8005L226.02 83.8005L228.945 83.1349ZM284.13 83.8005C281.048 70.2572 270.316 60.6854 258 60.6854V54.6854C273.642 54.6854 286.401 66.7419 289.98 82.4692L284.13 83.8005ZM258 60.6854C245.684 60.6854 234.952 70.2572 231.87 83.8005L226.02 82.4692C229.599 66.7419 242.358 54.6854 258 54.6854V60.6854ZM231 74.6517C231 77.3567 231.303 79.9759 231.87 82.4692L226.02 83.8005C225.353 80.8711 225 77.8053 225 74.6517H231ZM258 43.7192C243.425 43.7192 231 57.2102 231 74.6517H225C225 54.6124 239.438 37.7192 258 37.7192V43.7192ZM285 74.6517C285 57.2102 272.575 43.7192 258 43.7192V37.7192C276.562 37.7192 291 54.6124 291 74.6517H285ZM284.13 82.4692C284.697 79.9759 285 77.3567 285 74.6517H291C291 77.8053 290.647 80.8711 289.98 83.8005L284.13 82.4692Z" fill="black" mask="url(#path-79-inside-40_18:1660)"/>
</g>
<g id="Subtract_41">
<mask id="path-81-inside-41_18:1660" fill="white">
<path fill-rule="evenodd" clip-rule="evenodd" d="M286.922 97.2734C283.421 82.9259 271.798 72.3895 258 72.3895C244.202 72.3895 232.579 82.9259 229.078 97.2734C228.376 94.3927 228 91.3583 228 88.2248C228 69.4843 241.431 54.2922 258 54.2922C274.569 54.2922 288 69.4843 288 88.2248C288 91.3583 287.624 94.3927 286.922 97.2734Z"/>
</mask>
<path fill-rule="evenodd" clip-rule="evenodd" d="M286.922 97.2734C283.421 82.9259 271.798 72.3895 258 72.3895C244.202 72.3895 232.579 82.9259 229.078 97.2734C228.376 94.3927 228 91.3583 228 88.2248C228 69.4843 241.431 54.2922 258 54.2922C274.569 54.2922 288 69.4843 288 88.2248C288 91.3583 287.624 94.3927 286.922 97.2734Z" fill="#F2EBE1"/>
<path d="M286.922 97.2734L289.836 97.9846L284.007 97.9846L286.922 97.2734ZM229.078 97.2734L231.993 97.9846L226.164 97.9846L229.078 97.2734ZM284.007 97.9846C280.769 84.7136 270.158 75.3895 258 75.3895V69.3895C273.438 69.3895 286.072 81.1382 289.836 96.5623L284.007 97.9846ZM258 75.3895C245.842 75.3895 235.231 84.7136 231.993 97.9846L226.164 96.5623C229.928 81.1382 242.562 69.3895 258 69.3895V75.3895ZM231 88.2247C231 91.1183 231.347 93.914 231.993 96.5623L226.164 97.9846C225.404 94.8714 225 91.5983 225 88.2247H231ZM258 57.2922C243.425 57.2922 231 70.7832 231 88.2247H225C225 68.1854 239.438 51.2922 258 51.2922V57.2922ZM285 88.2247C285 70.7832 272.575 57.2922 258 57.2922V51.2922C276.562 51.2922 291 68.1854 291 88.2247H285ZM284.007 96.5623C284.653 93.914 285 91.1183 285 88.2247H291C291 91.5983 290.596 94.8714 289.836 97.9846L284.007 96.5623Z" fill="black" mask="url(#path-81-inside-41_18:1660)"/>
</g>
<g id="Subtract_42">
<mask id="path-83-inside-42_18:1660" fill="white">
<path fill-rule="evenodd" clip-rule="evenodd" d="M287.179 110.846C284.026 95.925 272.158 84.8315 258 84.8315C243.842 84.8315 231.974 95.925 228.821 110.846C228.284 108.306 228 105.655 228 102.929C228 84.1884 241.431 68.9963 258 68.9963C274.569 68.9963 288 84.1884 288 102.929C288 105.655 287.716 108.306 287.179 110.846Z"/>
</mask>
<path fill-rule="evenodd" clip-rule="evenodd" d="M287.179 110.846C284.026 95.925 272.158 84.8315 258 84.8315C243.842 84.8315 231.974 95.925 228.821 110.846C228.284 108.306 228 105.655 228 102.929C228 84.1884 241.431 68.9963 258 68.9963C274.569 68.9963 288 84.1884 288 102.929C288 105.655 287.716 108.306 287.179 110.846Z" fill="#F2EBE1"/>
<path d="M287.179 110.846L290.114 111.467L284.244 111.467L287.179 110.846ZM228.821 110.846L231.756 111.467H225.886L228.821 110.846ZM284.244 111.467C281.325 97.6526 270.473 87.8315 258 87.8315V81.8315C273.844 81.8315 286.727 94.1974 290.114 110.226L284.244 111.467ZM258 87.8315C245.527 87.8315 234.675 97.6526 231.756 111.467L225.886 110.226C229.273 94.1974 242.156 81.8315 258 81.8315V87.8315ZM231 102.929C231 105.446 231.262 107.89 231.756 110.226L225.886 111.467C225.306 108.723 225 105.864 225 102.929H231ZM258 71.9963C243.425 71.9963 231 85.4873 231 102.929H225C225 82.8895 239.438 65.9963 258 65.9963V71.9963ZM285 102.929C285 85.4873 272.575 71.9963 258 71.9963V65.9963C276.562 65.9963 291 82.8895 291 102.929H285ZM284.244 110.226C284.738 107.89 285 105.446 285 102.929H291C291 105.864 290.694 108.723 290.114 111.467L284.244 110.226Z" fill="black" mask="url(#path-83-inside-42_18:1660)"/>
</g>
<g id="Subtract_43">
<mask id="path-85-inside-43_18:1660" fill="white">
<path fill-rule="evenodd" clip-rule="evenodd" d="M287.055 123.854C283.725 109.219 271.979 98.4044 258 98.4044C244.021 98.4044 232.275 109.219 228.945 123.854C228.328 121.142 228 118.3 228 115.371C228 96.6303 241.431 81.4381 258 81.4381C274.569 81.4381 288 96.6303 288 115.371C288 118.3 287.672 121.142 287.055 123.854Z"/>
</mask>
<path fill-rule="evenodd" clip-rule="evenodd" d="M287.055 123.854C283.725 109.219 271.979 98.4044 258 98.4044C244.021 98.4044 232.275 109.219 228.945 123.854C228.328 121.142 228 118.3 228 115.371C228 96.6303 241.431 81.4381 258 81.4381C274.569 81.4381 288 96.6303 288 115.371C288 118.3 287.672 121.142 287.055 123.854Z" fill="#F2EBE1"/>
<path d="M287.055 123.854L289.98 124.52L284.13 124.52L287.055 123.854ZM228.945 123.854L231.87 124.52H226.02L228.945 123.854ZM284.13 124.52C281.048 110.976 270.316 101.404 258 101.404V95.4044C273.642 95.4044 286.401 107.461 289.98 123.188L284.13 124.52ZM258 101.404C245.684 101.404 234.952 110.976 231.87 124.52L226.02 123.188C229.599 107.461 242.358 95.4044 258 95.4044V101.404ZM231 115.371C231 118.076 231.303 120.695 231.87 123.188L226.02 124.52C225.353 121.59 225 118.524 225 115.371H231ZM258 84.4382C243.425 84.4382 231 97.9292 231 115.371H225C225 95.3314 239.438 78.4382 258 78.4382V84.4382ZM285 115.371C285 97.9292 272.575 84.4382 258 84.4382V78.4382C276.562 78.4382 291 95.3314 291 115.371H285ZM284.13 123.188C284.697 120.695 285 118.076 285 115.371H291C291 118.524 290.647 121.59 289.98 124.52L284.13 123.188Z" fill="black" mask="url(#path-85-inside-43_18:1660)"/>
</g>
<g id="Subtract_44">
<mask id="path-87-inside-44_18:1660" fill="white">
<path fill-rule="evenodd" clip-rule="evenodd" d="M287.055 137.427C283.725 122.792 271.979 111.978 258 111.978C244.021 111.978 232.275 122.792 228.945 137.427C228.328 134.716 228 131.873 228 128.944C228 110.203 241.431 95.0113 258 95.0113C274.569 95.0113 288 110.203 288 128.944C288 131.873 287.672 134.716 287.055 137.427Z"/>
</mask>
<path fill-rule="evenodd" clip-rule="evenodd" d="M287.055 137.427C283.725 122.792 271.979 111.978 258 111.978C244.021 111.978 232.275 122.792 228.945 137.427C228.328 134.716 228 131.873 228 128.944C228 110.203 241.431 95.0113 258 95.0113C274.569 95.0113 288 110.203 288 128.944C288 131.873 287.672 134.716 287.055 137.427Z" fill="#F2EBE1"/>
<path d="M287.055 137.427L289.98 138.093L284.13 138.093L287.055 137.427ZM228.945 137.427L231.87 138.093H226.02L228.945 137.427ZM284.13 138.093C281.048 124.549 270.316 114.978 258 114.978V108.978C273.642 108.978 286.401 121.034 289.98 136.761L284.13 138.093ZM258 114.978C245.684 114.978 234.952 124.549 231.87 138.093L226.02 136.761C229.599 121.034 242.358 108.978 258 108.978V114.978ZM231 128.944C231 131.649 231.303 134.268 231.87 136.761L226.02 138.093C225.353 135.163 225 132.097 225 128.944H231ZM258 98.0113C243.425 98.0113 231 111.502 231 128.944H225C225 108.905 239.438 92.0113 258 92.0113V98.0113ZM285 128.944C285 111.502 272.575 98.0113 258 98.0113V92.0113C276.562 92.0113 291 108.905 291 128.944H285ZM284.13 136.761C284.697 134.268 285 131.649 285 128.944H291C291 132.097 290.647 135.163 289.98 138.093L284.13 136.761Z" fill="black" mask="url(#path-87-inside-44_18:1660)"/>
</g>
<g id="Subtract_45">
<mask id="path-89-inside-45_18:1660" fill="white">
<path fill-rule="evenodd" clip-rule="evenodd" d="M287.055 151C283.725 136.365 271.979 125.551 258 125.551C244.021 125.551 232.275 136.365 228.945 151C228.328 148.289 228 145.446 228 142.517C228 123.776 241.431 108.584 258 108.584C274.569 108.584 288 123.776 288 142.517C288 145.446 287.672 148.289 287.055 151Z"/>
</mask>
<path fill-rule="evenodd" clip-rule="evenodd" d="M287.055 151C283.725 136.365 271.979 125.551 258 125.551C244.021 125.551 232.275 136.365 228.945 151C228.328 148.289 228 145.446 228 142.517C228 123.776 241.431 108.584 258 108.584C274.569 108.584 288 123.776 288 142.517C288 145.446 287.672 148.289 287.055 151Z" fill="#F2EBE1"/>
<path d="M287.055 151L289.98 151.666L284.13 151.666L287.055 151ZM228.945 151L231.87 151.666H226.02L228.945 151ZM284.13 151.666C281.048 138.122 270.316 128.551 258 128.551V122.551C273.642 122.551 286.401 134.607 289.98 150.334L284.13 151.666ZM258 128.551C245.684 128.551 234.952 138.122 231.87 151.666L226.02 150.334C229.599 134.607 242.358 122.551 258 122.551V128.551ZM231 142.517C231 145.222 231.303 147.841 231.87 150.334L226.02 151.666C225.353 148.736 225 145.67 225 142.517H231ZM258 111.584C243.425 111.584 231 125.075 231 142.517H225C225 122.478 239.438 105.584 258 105.584V111.584ZM285 142.517C285 125.075 272.575 111.584 258 111.584V105.584C276.562 105.584 291 122.478 291 142.517H285ZM284.13 150.334C284.697 147.841 285 145.222 285 142.517H291C291 145.67 290.647 148.736 289.98 151.666L284.13 150.334Z" fill="black" mask="url(#path-89-inside-45_18:1660)"/>
</g>
</g>
<g id="Group 6">
<g id="Subtract_46">
<mask id="path-91-inside-46_18:1660" fill="white">
<path fill-rule="evenodd" clip-rule="evenodd" d="M343.922 259.019C340.421 273.366 328.798 283.903 315 283.903C301.202 283.903 289.579 273.366 286.078 259.019C285.376 261.899 285 264.934 285 268.067C285 286.808 298.431 302 315 302C331.569 302 345 286.808 345 268.067C345 264.934 344.624 261.899 343.922 259.019Z"/>
</mask>
<path fill-rule="evenodd" clip-rule="evenodd" d="M343.922 259.019C340.421 273.366 328.798 283.903 315 283.903C301.202 283.903 289.579 273.366 286.078 259.019C285.376 261.899 285 264.934 285 268.067C285 286.808 298.431 302 315 302C331.569 302 345 286.808 345 268.067C345 264.934 344.624 261.899 343.922 259.019Z" fill="#F2EBE1"/>
<path d="M343.922 259.019L346.836 258.308L341.007 258.308L343.922 259.019ZM286.078 259.019L288.993 258.308H283.164L286.078 259.019ZM341.007 258.308C337.769 271.579 327.158 280.903 315 280.903V286.903C330.438 286.903 343.072 275.154 346.836 259.73L341.007 258.308ZM315 280.903C302.842 280.903 292.231 271.579 288.993 258.308L283.164 259.73C286.928 275.154 299.562 286.903 315 286.903V280.903ZM288 268.067C288 265.174 288.347 262.378 288.993 259.73L283.164 258.308C282.404 261.421 282 264.694 282 268.067H288ZM315 299C300.425 299 288 285.509 288 268.067H282C282 288.107 296.438 305 315 305V299ZM342 268.067C342 285.509 329.575 299 315 299V305C333.562 305 348 288.107 348 268.067H342ZM341.007 259.73C341.653 262.378 342 265.174 342 268.067H348C348 264.694 347.596 261.421 346.836 258.308L341.007 259.73Z" fill="black" mask="url(#path-91-inside-46_18:1660)"/>
</g>
<g id="Subtract_47">
<mask id="path-93-inside-47_18:1660" fill="white">
<path fill-rule="evenodd" clip-rule="evenodd" d="M344.179 245.446C341.026 260.367 329.158 271.461 315 271.461C300.842 271.461 288.974 260.367 285.821 245.446C285.284 247.986 285 250.637 285 253.363C285 272.104 298.431 287.296 315 287.296C331.569 287.296 345 272.104 345 253.363C345 250.637 344.716 247.986 344.179 245.446Z"/>
</mask>
<path fill-rule="evenodd" clip-rule="evenodd" d="M344.179 245.446C341.026 260.367 329.158 271.461 315 271.461C300.842 271.461 288.974 260.367 285.821 245.446C285.284 247.986 285 250.637 285 253.363C285 272.104 298.431 287.296 315 287.296C331.569 287.296 345 272.104 345 253.363C345 250.637 344.716 247.986 344.179 245.446Z" fill="#F2EBE1"/>
<path d="M344.179 245.446L347.114 244.825H341.244L344.179 245.446ZM285.821 245.446L288.756 244.825H282.886L285.821 245.446ZM341.244 244.825C338.325 258.64 327.473 268.461 315 268.461V274.461C330.844 274.461 343.727 262.095 347.114 246.066L341.244 244.825ZM315 268.461C302.527 268.461 291.675 258.64 288.756 244.825L282.886 246.066C286.273 262.095 299.156 274.461 315 274.461V268.461ZM288 253.363C288 250.846 288.262 248.403 288.756 246.066L282.886 244.825C282.306 247.569 282 250.428 282 253.363H288ZM315 284.296C300.425 284.296 288 270.805 288 253.363H282C282 273.403 296.438 290.296 315 290.296V284.296ZM342 253.363C342 270.805 329.575 284.296 315 284.296V290.296C333.562 290.296 348 273.403 348 253.363H342ZM341.244 246.066C341.738 248.403 342 250.846 342 253.363H348C348 250.428 347.694 247.569 347.114 244.825L341.244 246.066Z" fill="black" mask="url(#path-93-inside-47_18:1660)"/>
</g>
<g id="Subtract_48">
<mask id="path-95-inside-48_18:1660" fill="white">
<path fill-rule="evenodd" clip-rule="evenodd" d="M344.055 232.438C340.725 247.074 328.979 257.888 315 257.888C301.021 257.888 289.275 247.074 285.945 232.438C285.328 235.15 285 237.992 285 240.921C285 259.662 298.431 274.854 315 274.854C331.569 274.854 345 259.662 345 240.921C345 237.992 344.672 235.15 344.055 232.438Z"/>
</mask>
<path fill-rule="evenodd" clip-rule="evenodd" d="M344.055 232.438C340.725 247.074 328.979 257.888 315 257.888C301.021 257.888 289.275 247.074 285.945 232.438C285.328 235.15 285 237.992 285 240.921C285 259.662 298.431 274.854 315 274.854C331.569 274.854 345 259.662 345 240.921C345 237.992 344.672 235.15 344.055 232.438Z" fill="#F2EBE1"/>
<path d="M344.055 232.438L346.98 231.773L341.13 231.773L344.055 232.438ZM285.945 232.438L288.87 231.773H283.02L285.945 232.438ZM341.13 231.773C338.048 245.316 327.316 254.888 315 254.888V260.888C330.642 260.888 343.401 248.831 346.98 233.104L341.13 231.773ZM315 254.888C302.684 254.888 291.952 245.316 288.87 231.773L283.02 233.104C286.599 248.831 299.358 260.888 315 260.888V254.888ZM288 240.921C288 238.216 288.303 235.597 288.87 233.104L283.02 231.773C282.353 234.702 282 237.768 282 240.921H288ZM315 271.854C300.425 271.854 288 258.363 288 240.921H282C282 260.961 296.438 277.854 315 277.854V271.854ZM342 240.921C342 258.363 329.575 271.854 315 271.854V277.854C333.562 277.854 348 260.961 348 240.921H342ZM341.13 233.104C341.697 235.597 342 238.216 342 240.921H348C348 237.768 347.647 234.702 346.98 231.773L341.13 233.104Z" fill="black" mask="url(#path-95-inside-48_18:1660)"/>
</g>
<g id="Subtract_49">
<mask id="path-97-inside-49_18:1660" fill="white">
<path fill-rule="evenodd" clip-rule="evenodd" d="M344.055 218.865C340.725 233.5 328.979 244.315 315 244.315C301.021 244.315 289.275 233.5 285.945 218.865C285.328 221.576 285 224.419 285 227.348C285 246.089 298.431 261.281 315 261.281C331.569 261.281 345 246.089 345 227.348C345 224.419 344.672 221.576 344.055 218.865Z"/>
</mask>
<path fill-rule="evenodd" clip-rule="evenodd" d="M344.055 218.865C340.725 233.5 328.979 244.315 315 244.315C301.021 244.315 289.275 233.5 285.945 218.865C285.328 221.576 285 224.419 285 227.348C285 246.089 298.431 261.281 315 261.281C331.569 261.281 345 246.089 345 227.348C345 224.419 344.672 221.576 344.055 218.865Z" fill="#F2EBE1"/>
<path d="M344.055 218.865L346.98 218.199L341.13 218.199L344.055 218.865ZM285.945 218.865L288.87 218.199L283.02 218.199L285.945 218.865ZM341.13 218.199C338.048 231.743 327.316 241.315 315 241.315V247.315C330.642 247.315 343.401 235.258 346.98 219.531L341.13 218.199ZM315 241.315C302.684 241.315 291.952 231.743 288.87 218.199L283.02 219.531C286.599 235.258 299.358 247.315 315 247.315V241.315ZM288 227.348C288 224.643 288.303 222.024 288.87 219.531L283.02 218.199C282.353 221.129 282 224.195 282 227.348H288ZM315 258.281C300.425 258.281 288 244.79 288 227.348H282C282 247.388 296.438 264.281 315 264.281V258.281ZM342 227.348C342 244.79 329.575 258.281 315 258.281V264.281C333.562 264.281 348 247.388 348 227.348H342ZM341.13 219.531C341.697 222.024 342 224.643 342 227.348H348C348 224.195 347.647 221.129 346.98 218.199L341.13 219.531Z" fill="black" mask="url(#path-97-inside-49_18:1660)"/>
</g>
<g id="Subtract_50">
<mask id="path-99-inside-50_18:1660" fill="white">
<path fill-rule="evenodd" clip-rule="evenodd" d="M343.922 204.727C340.421 219.074 328.798 229.61 315 229.61C301.202 229.61 289.579 219.074 286.078 204.727C285.376 207.607 285 210.642 285 213.775C285 232.516 298.431 247.708 315 247.708C331.569 247.708 345 232.516 345 213.775C345 210.642 344.624 207.607 343.922 204.727Z"/>
</mask>
<path fill-rule="evenodd" clip-rule="evenodd" d="M343.922 204.727C340.421 219.074 328.798 229.61 315 229.61C301.202 229.61 289.579 219.074 286.078 204.727C285.376 207.607 285 210.642 285 213.775C285 232.516 298.431 247.708 315 247.708C331.569 247.708 345 232.516 345 213.775C345 210.642 344.624 207.607 343.922 204.727Z" fill="#F2EBE1"/>
<path d="M343.922 204.727L346.836 204.015L341.007 204.015L343.922 204.727ZM286.078 204.727L288.993 204.015L283.164 204.015L286.078 204.727ZM341.007 204.015C337.769 217.286 327.158 226.61 315 226.61V232.61C330.438 232.61 343.072 220.862 346.836 205.438L341.007 204.015ZM315 226.61C302.842 226.61 292.231 217.286 288.993 204.015L283.164 205.438C286.928 220.862 299.562 232.61 315 232.61V226.61ZM288 213.775C288 210.882 288.347 208.086 288.993 205.438L283.164 204.015C282.404 207.129 282 210.402 282 213.775H288ZM315 244.708C300.425 244.708 288 231.217 288 213.775H282C282 233.815 296.438 250.708 315 250.708V244.708ZM342 213.775C342 231.217 329.575 244.708 315 244.708V250.708C333.562 250.708 348 233.815 348 213.775H342ZM341.007 205.438C341.653 208.086 342 210.882 342 213.775H348C348 210.402 347.596 207.129 346.836 204.015L341.007 205.438Z" fill="black" mask="url(#path-99-inside-50_18:1660)"/>
</g>
<g id="Subtract_51">
<mask id="path-101-inside-51_18:1660" fill="white">
<path fill-rule="evenodd" clip-rule="evenodd" d="M344.179 191.154C341.026 206.075 329.158 217.169 315 217.169C300.842 217.169 288.974 206.075 285.821 191.154C285.284 193.694 285 196.345 285 199.071C285 217.812 298.431 233.004 315 233.004C331.569 233.004 345 217.812 345 199.071C345 196.345 344.716 193.694 344.179 191.154Z"/>
</mask>
<path fill-rule="evenodd" clip-rule="evenodd" d="M344.179 191.154C341.026 206.075 329.158 217.169 315 217.169C300.842 217.169 288.974 206.075 285.821 191.154C285.284 193.694 285 196.345 285 199.071C285 217.812 298.431 233.004 315 233.004C331.569 233.004 345 217.812 345 199.071C345 196.345 344.716 193.694 344.179 191.154Z" fill="#F2EBE1"/>
<path d="M344.179 191.154L347.114 190.533L341.244 190.533L344.179 191.154ZM285.821 191.154L288.756 190.533H282.886L285.821 191.154ZM341.244 190.533C338.325 204.347 327.473 214.169 315 214.169V220.169C330.844 220.169 343.727 207.803 347.114 191.774L341.244 190.533ZM315 214.169C302.527 214.169 291.675 204.347 288.756 190.533L282.886 191.774C286.273 207.803 299.156 220.169 315 220.169V214.169ZM288 199.071C288 196.554 288.262 194.11 288.756 191.774L282.886 190.533C282.306 193.277 282 196.136 282 199.071H288ZM315 230.004C300.425 230.004 288 216.513 288 199.071H282C282 219.11 296.438 236.004 315 236.004V230.004ZM342 199.071C342 216.513 329.575 230.004 315 230.004V236.004C333.562 236.004 348 219.11 348 199.071H342ZM341.244 191.774C341.738 194.11 342 196.554 342 199.071H348C348 196.136 347.694 193.277 347.114 190.533L341.244 191.774Z" fill="black" mask="url(#path-101-inside-51_18:1660)"/>
</g>
<g id="Subtract_52">
<mask id="path-103-inside-52_18:1660" fill="white">
<path fill-rule="evenodd" clip-rule="evenodd" d="M344.055 178.146C340.725 192.781 328.979 203.596 315 203.596C301.021 203.596 289.275 192.781 285.945 178.146C285.328 180.858 285 183.7 285 186.629C285 205.37 298.431 220.562 315 220.562C331.569 220.562 345 205.37 345 186.629C345 183.7 344.672 180.858 344.055 178.146Z"/>
</mask>
<path fill-rule="evenodd" clip-rule="evenodd" d="M344.055 178.146C340.725 192.781 328.979 203.596 315 203.596C301.021 203.596 289.275 192.781 285.945 178.146C285.328 180.858 285 183.7 285 186.629C285 205.37 298.431 220.562 315 220.562C331.569 220.562 345 205.37 345 186.629C345 183.7 344.672 180.858 344.055 178.146Z" fill="#F2EBE1"/>
<path d="M344.055 178.146L346.98 177.48L341.13 177.48L344.055 178.146ZM285.945 178.146L288.87 177.48H283.02L285.945 178.146ZM341.13 177.48C338.048 191.024 327.316 200.596 315 200.596V206.596C330.642 206.596 343.401 194.539 346.98 178.812L341.13 177.48ZM315 200.596C302.684 200.596 291.952 191.024 288.87 177.48L283.02 178.812C286.599 194.539 299.358 206.596 315 206.596V200.596ZM288 186.629C288 183.924 288.303 181.305 288.87 178.812L283.02 177.48C282.353 180.41 282 183.476 282 186.629H288ZM315 217.562C300.425 217.562 288 204.071 288 186.629H282C282 206.669 296.438 223.562 315 223.562V217.562ZM342 186.629C342 204.071 329.575 217.562 315 217.562V223.562C333.562 223.562 348 206.669 348 186.629H342ZM341.13 178.812C341.697 181.305 342 183.924 342 186.629H348C348 183.476 347.647 180.41 346.98 177.48L341.13 178.812Z" fill="black" mask="url(#path-103-inside-52_18:1660)"/>
</g>
<g id="Subtract_53">
<mask id="path-105-inside-53_18:1660" fill="white">
<path fill-rule="evenodd" clip-rule="evenodd" d="M344.055 164.573C340.725 179.208 328.979 190.022 315 190.022C301.021 190.022 289.275 179.208 285.945 164.573C285.328 167.284 285 170.127 285 173.056C285 191.797 298.431 206.989 315 206.989C331.569 206.989 345 191.797 345 173.056C345 170.127 344.672 167.284 344.055 164.573Z"/>
</mask>
<path fill-rule="evenodd" clip-rule="evenodd" d="M344.055 164.573C340.725 179.208 328.979 190.022 315 190.022C301.021 190.022 289.275 179.208 285.945 164.573C285.328 167.284 285 170.127 285 173.056C285 191.797 298.431 206.989 315 206.989C331.569 206.989 345 191.797 345 173.056C345 170.127 344.672 167.284 344.055 164.573Z" fill="#F2EBE1"/>
<path d="M344.055 164.573L346.98 163.907L341.13 163.907L344.055 164.573ZM285.945 164.573L288.87 163.907H283.02L285.945 164.573ZM341.13 163.907C338.048 177.451 327.316 187.022 315 187.022V193.022C330.642 193.022 343.401 180.966 346.98 165.239L341.13 163.907ZM315 187.022C302.684 187.022 291.952 177.451 288.87 163.907L283.02 165.239C286.599 180.966 299.358 193.022 315 193.022V187.022ZM288 173.056C288 170.351 288.303 167.732 288.87 165.239L283.02 163.907C282.353 166.837 282 169.903 282 173.056H288ZM315 203.989C300.425 203.989 288 190.498 288 173.056H282C282 193.095 296.438 209.989 315 209.989V203.989ZM342 173.056C342 190.498 329.575 203.989 315 203.989V209.989C333.562 209.989 348 193.095 348 173.056H342ZM341.13 165.239C341.697 167.732 342 170.351 342 173.056H348C348 169.903 347.647 166.837 346.98 163.907L341.13 165.239Z" fill="black" mask="url(#path-105-inside-53_18:1660)"/>
</g>
<g id="Subtract_54">
<mask id="path-107-inside-54_18:1660" fill="white">
<path fill-rule="evenodd" clip-rule="evenodd" d="M344.055 151C340.725 165.635 328.979 176.449 315 176.449C301.021 176.449 289.275 165.635 285.945 151C285.328 153.711 285 156.554 285 159.483C285 178.224 298.431 193.416 315 193.416C331.569 193.416 345 178.224 345 159.483C345 156.554 344.672 153.711 344.055 151Z"/>
</mask>
<path fill-rule="evenodd" clip-rule="evenodd" d="M344.055 151C340.725 165.635 328.979 176.449 315 176.449C301.021 176.449 289.275 165.635 285.945 151C285.328 153.711 285 156.554 285 159.483C285 178.224 298.431 193.416 315 193.416C331.569 193.416 345 178.224 345 159.483C345 156.554 344.672 153.711 344.055 151Z" fill="#F2EBE1"/>
<path d="M344.055 151L346.98 150.334L341.13 150.334L344.055 151ZM285.945 151L288.87 150.334H283.02L285.945 151ZM341.13 150.334C338.048 163.878 327.316 173.449 315 173.449V179.449C330.642 179.449 343.401 167.393 346.98 151.666L341.13 150.334ZM315 173.449C302.684 173.449 291.952 163.878 288.87 150.334L283.02 151.666C286.599 167.393 299.358 179.449 315 179.449V173.449ZM288 159.483C288 156.778 288.303 154.159 288.87 151.666L283.02 150.334C282.353 153.264 282 156.33 282 159.483H288ZM315 190.416C300.425 190.416 288 176.925 288 159.483H282C282 179.522 296.438 196.416 315 196.416V190.416ZM342 159.483C342 176.925 329.575 190.416 315 190.416V196.416C333.562 196.416 348 179.522 348 159.483H342ZM341.13 151.666C341.697 154.159 342 156.778 342 159.483H348C348 156.33 347.647 153.264 346.98 150.334L341.13 151.666Z" fill="black" mask="url(#path-107-inside-54_18:1660)"/>
</g>
</g>
<line id="Line 1" x1="1.5" y1="167.5" x2="1.5" y2="343.5" stroke="black" stroke-width="3" stroke-linecap="round"/>
<line id="Line 2" x1="58.5" y1="169" x2="58.5" y2="403" stroke="black" stroke-width="3"/>
<line id="Line 3" y1="-1.5" x2="234" y2="-1.5" transform="matrix(3.57351e-06 1 1 -3.57351e-06 117 169)" stroke="black" stroke-width="3"/>
<line id="Line 4" y1="-1.5" x2="114" y2="-1.5" transform="matrix(0 1 1 0 174 165)" stroke="black" stroke-width="3"/>
<line id="Line 5" x1="229.5" y1="32.9999" x2="229.512" y2="274" stroke="black" stroke-width="3"/>
<line id="Line 6" y1="-1.5" x2="234" y2="-1.5" transform="matrix(0 1 1 0 288 34)" stroke="black" stroke-width="3"/>
<line id="Line 7" x1="343.5" y1="93.5" x2="343.5" y2="268.5" stroke="black" stroke-width="3" stroke-linecap="round"/>
<circle id="Left Ellipse" r="35" transform="matrix(1 0 0 -1 87 35)" fill="black"/>
<circle id="Right Ellipse" r="35" transform="matrix(1 0 0 -1 258 402)" fill="black"/>
</g>
</svg>
