<svg width="347" height="443" viewBox="0 0 347 443" fill="none" xmlns="http://www.w3.org/2000/svg">
<g id="Step Two">
<g id="Subtract">
<mask id="path-1-inside-1_53:2" fill="white">
<path fill-rule="evenodd" clip-rule="evenodd" d="M61 35.5C61 17.2973 72.5233 2.99999 88 2.99999C103.477 2.99999 115 17.2973 115 35.5H118C118 16.2218 105.66 -1.14441e-05 88 -1.14441e-05C70.3396 -1.14441e-05 58 16.2218 58 35.5H61Z"/>
</mask>
<path fill-rule="evenodd" clip-rule="evenodd" d="M61 35.5C61 17.2973 72.5233 2.99999 88 2.99999C103.477 2.99999 115 17.2973 115 35.5H118C118 16.2218 105.66 -1.14441e-05 88 -1.14441e-05C70.3396 -1.14441e-05 58 16.2218 58 35.5H61Z" fill="#F2EBE1"/>
<path d="M61 35.5H64V38.5H61V35.5ZM115 35.5V38.5H112V35.5H115ZM118 35.5H121V38.5H118V35.5ZM58 35.5V38.5H55V35.5H58ZM88 5.99999C74.6998 5.99999 64 18.3817 64 35.5H58C58 16.2129 70.3469 -1.14441e-05 88 -1.14441e-05V5.99999ZM112 35.5C112 18.3817 101.3 5.99999 88 5.99999V-1.14441e-05C105.653 -1.14441e-05 118 16.2129 118 35.5H112ZM118 38.5H115V32.5H118V38.5ZM88 -3.00001C107.851 -3.00001 121 15.1543 121 35.5H115C115 17.2892 103.47 2.99999 88 2.99999V-3.00001ZM55 35.5C55 15.1543 68.1492 -3.00001 88 -3.00001V2.99999C72.53 2.99999 61 17.2892 61 35.5H55ZM61 38.5H58V32.5H61V38.5Z" fill="black" mask="url(#path-1-inside-1_53:2)"/>
</g>
<g id="Subtract_2">
<mask id="path-3-inside-2_53:2" fill="white">
<path fill-rule="evenodd" clip-rule="evenodd" d="M232 407C232 425.203 243.523 439.5 259 439.5C274.477 439.5 286 425.203 286 407H289C289 426.278 276.66 442.5 259 442.5C241.34 442.5 229 426.278 229 407H232Z"/>
</mask>
<path fill-rule="evenodd" clip-rule="evenodd" d="M232 407C232 425.203 243.523 439.5 259 439.5C274.477 439.5 286 425.203 286 407H289C289 426.278 276.66 442.5 259 442.5C241.34 442.5 229 426.278 229 407H232Z" fill="#F2EBE1"/>
<path d="M232 407H235V404H232V407ZM286 407V404H283V407H286ZM289 407H292V404H289V407ZM229 407V404H226V407H229ZM259 436.5C245.7 436.5 235 424.118 235 407H229C229 426.287 241.347 442.5 259 442.5V436.5ZM283 407C283 424.118 272.3 436.5 259 436.5V442.5C276.653 442.5 289 426.287 289 407H283ZM289 404H286V410H289V404ZM259 445.5C278.851 445.5 292 427.346 292 407H286C286 425.211 274.47 439.5 259 439.5V445.5ZM226 407C226 427.346 239.149 445.5 259 445.5V439.5C243.53 439.5 232 425.211 232 407H226ZM232 404H229V410H232V404Z" fill="black" mask="url(#path-3-inside-2_53:2)"/>
</g>
<g id="Subtract_3">
<mask id="path-5-inside-3_53:2" fill="white">
<path fill-rule="evenodd" clip-rule="evenodd" d="M118 272C118 290.203 129.523 304.5 145 304.5C160.477 304.5 172 290.203 172 272H175C175 291.278 162.66 307.5 145 307.5C127.34 307.5 115 291.278 115 272H118Z"/>
</mask>
<path fill-rule="evenodd" clip-rule="evenodd" d="M118 272C118 290.203 129.523 304.5 145 304.5C160.477 304.5 172 290.203 172 272H175C175 291.278 162.66 307.5 145 307.5C127.34 307.5 115 291.278 115 272H118Z" fill="#F2EBE1"/>
<path d="M118 272H121V269H118V272ZM172 272V269H169V272H172ZM175 272H178V269H175V272ZM115 272V269H112V272H115ZM145 301.5C131.7 301.5 121 289.118 121 272H115C115 291.287 127.347 307.5 145 307.5V301.5ZM169 272C169 289.118 158.3 301.5 145 301.5V307.5C162.653 307.5 175 291.287 175 272H169ZM175 269H172V275H175V269ZM145 310.5C164.851 310.5 178 292.346 178 272H172C172 290.211 160.47 304.5 145 304.5V310.5ZM112 272C112 292.346 125.149 310.5 145 310.5V304.5C129.53 304.5 118 290.211 118 272H112ZM118 269H115V275H118V269Z" fill="black" mask="url(#path-5-inside-3_53:2)"/>
</g>
<g id="Subtract_4">
<mask id="path-7-inside-4_53:2" fill="white">
<path fill-rule="evenodd" clip-rule="evenodd" d="M4 272C4 290.203 15.5233 304.5 31 304.5C46.4767 304.5 58 290.203 58 272H61C61 291.278 48.6604 307.5 31 307.5C13.3396 307.5 1 291.278 1 272H4Z"/>
</mask>
<path fill-rule="evenodd" clip-rule="evenodd" d="M4 272C4 290.203 15.5233 304.5 31 304.5C46.4767 304.5 58 290.203 58 272H61C61 291.278 48.6604 307.5 31 307.5C13.3396 307.5 1 291.278 1 272H4Z" fill="#F2EBE1"/>
<path d="M4 272H7V269H4V272ZM58 272V269H55V272H58ZM61 272H64V269H61V272ZM1 272V269H-2V272H1ZM31 301.5C17.6998 301.5 7 289.118 7 272H1C1 291.287 13.3469 307.5 31 307.5V301.5ZM55 272C55 289.118 44.3002 301.5 31 301.5V307.5C48.6531 307.5 61 291.287 61 272H55ZM61 269H58V275H61V269ZM31 310.5C50.8508 310.5 64 292.346 64 272H58C58 290.211 46.47 304.5 31 304.5V310.5ZM-2 272C-2 292.346 11.1492 310.5 31 310.5V304.5C15.53 304.5 4 290.211 4 272H-2ZM4 269H1V275H4V269Z" fill="black" mask="url(#path-7-inside-4_53:2)"/>
</g>
<g id="Subtract_5">
<mask id="path-9-inside-5_53:2" fill="white">
<path fill-rule="evenodd" clip-rule="evenodd" d="M175 163.5C175 145.297 186.523 131 202 131C217.477 131 229 145.297 229 163.5H232C232 144.222 219.66 128 202 128C184.34 128 172 144.222 172 163.5H175Z"/>
</mask>
<path fill-rule="evenodd" clip-rule="evenodd" d="M175 163.5C175 145.297 186.523 131 202 131C217.477 131 229 145.297 229 163.5H232C232 144.222 219.66 128 202 128C184.34 128 172 144.222 172 163.5H175Z" fill="#F2EBE1"/>
<path d="M175 163.5H178V166.5H175V163.5ZM229 163.5V166.5H226V163.5H229ZM232 163.5H235V166.5H232V163.5ZM172 163.5V166.5H169V163.5H172ZM202 134C188.7 134 178 146.382 178 163.5H172C172 144.213 184.347 128 202 128V134ZM226 163.5C226 146.382 215.3 134 202 134V128C219.653 128 232 144.213 232 163.5H226ZM232 166.5H229V160.5H232V166.5ZM202 125C221.851 125 235 143.154 235 163.5H229C229 145.289 217.47 131 202 131V125ZM169 163.5C169 143.154 182.149 125 202 125V131C186.53 131 175 145.289 175 163.5H169ZM175 166.5H172V160.5H175V166.5Z" fill="black" mask="url(#path-9-inside-5_53:2)"/>
</g>
<g id="Subtract_6">
<mask id="path-11-inside-6_53:2" fill="white">
<path fill-rule="evenodd" clip-rule="evenodd" d="M289 163.5C289 145.297 300.523 131 316 131C331.477 131 343 145.297 343 163.5H346C346 144.222 333.66 128 316 128C298.34 128 286 144.222 286 163.5H289Z"/>
</mask>
<path fill-rule="evenodd" clip-rule="evenodd" d="M289 163.5C289 145.297 300.523 131 316 131C331.477 131 343 145.297 343 163.5H346C346 144.222 333.66 128 316 128C298.34 128 286 144.222 286 163.5H289Z" fill="#F2EBE1"/>
<path d="M289 163.5H292V166.5H289V163.5ZM343 163.5V166.5H340V163.5H343ZM346 163.5H349V166.5H346V163.5ZM286 163.5V166.5H283V163.5H286ZM316 134C302.7 134 292 146.382 292 163.5H286C286 144.213 298.347 128 316 128V134ZM340 163.5C340 146.382 329.3 134 316 134V128C333.653 128 346 144.213 346 163.5H340ZM346 166.5H343V160.5H346V166.5ZM316 125C335.851 125 349 143.154 349 163.5H343C343 145.289 331.47 131 316 131V125ZM283 163.5C283 143.154 296.149 125 316 125V131C300.53 131 289 145.289 289 163.5H283ZM289 166.5H286V160.5H289V166.5Z" fill="black" mask="url(#path-11-inside-6_53:2)"/>
</g>
<line id="Line 1" x1="2.49169" y1="272.508" x2="1.51401" y2="96.5083" stroke="black" stroke-width="3" stroke-linecap="round"/>
<line id="Line 2" x1="59.5" y1="272" x2="59.5008" y2="35" stroke="black" stroke-width="3"/>
<line id="Line 3" x1="116.5" y1="272" x2="116.501" y2="35" stroke="black" stroke-width="3"/>
<line id="Line 4" x1="173.5" y1="276" x2="173.5" y2="162" stroke="black" stroke-width="3"/>
<line id="Line 5" x1="230.5" y1="407" x2="230.501" y2="163" stroke="black" stroke-width="3"/>
<line id="Line 6" x1="287.5" y1="407" x2="287.5" y2="163" stroke="black" stroke-width="3"/>
<line id="Line 7" x1="345.486" y1="348.508" x2="344.446" y2="163.509" stroke="black" stroke-width="3" stroke-linecap="round"/>
</g>
</svg>
